<?xml version="1.0" standalone="no"?>
<!DOCTYPE svg PUBLIC "-//W3C//DTD SVG 20010904//EN"
 "http://www.w3.org/TR/2001/REC-SVG-20010904/DTD/svg10.dtd">
<svg version="1.0" xmlns="http://www.w3.org/2000/svg"
 width="300.000000pt" height="279.000000pt" viewBox="0 0 300.000000 279.000000"
 preserveAspectRatio="xMidYMid meet">
<metadata>
Created by potrace 1.10, written by Peter Selinger 2001-2011
</metadata>
<g transform="translate(0.000000,279.000000) scale(0.050000,-0.050000)"
fill="#227bce" stroke="none">
<path d="M4478 4566 c-301 -225 -1032 -981 -983 -1016 111 -79 -136 -394 -258
-329 -45 24 104 192 190 215 99 26 65 54 -70 56 -165 3 -192 17 -143 75 l36
43 -45 -39 c-79 -66 -100 -11 -38 100 29 52 53 107 53 123 0 17 10 23 25 14
14 -8 18 -7 9 3 -37 41 -228 52 -265 15 -38 -38 -37 -119 1 -133 17 -7 30 -27
30 -45 0 -27 -6 -28 -29 -9 -16 14 -41 17 -55 9 -58 -35 -156 -139 -156 -166
0 -16 -6 -22 -14 -15 -20 20 55 153 85 153 36 0 71 117 58 190 -17 87 -69 84
-69 -4 0 -66 -61 -212 -98 -235 -25 -15 -84 9 -71 30 18 29 -38 99 -81 101
-25 1 -15 9 26 21 75 21 177 105 194 158 8 23 25 31 51 25 30 -8 37 -3 27 22
-7 17 -25 32 -40 32 -35 0 -37 73 -3 86 20 7 20 15 1 35 -31 32 -228 27 -313
-9 -129 -53 -198 -315 -96 -362 27 -12 43 -38 43 -69 0 -41 -4 -44 -25 -20
-14 16 -23 26 -20 21 23 -38 -84 -95 -162 -87 -81 8 -88 4 -112 -53 -14 -34
-33 -62 -41 -62 -25 0 -36 -72 -16 -107 15 -28 11 -30 -32 -14 -32 13 -55 12
-62 0 -7 -10 -3 -19 9 -19 11 0 21 -20 21 -45 1 -33 5 -38 18 -17 10 15 28 21
40 13 12 -7 29 3 37 24 17 42 150 165 179 165 31 0 195 84 211 108 8 13 15 5
15 -20 0 -28 24 -53 75 -78 41 -20 91 -44 110 -53 19 -9 56 -17 82 -17 44 0
250 -63 294 -91 37 -23 -18 -64 -71 -54 -37 7 -50 1 -50 -23 0 -48 -33 -40
-228 58 -189 96 -334 118 -423 65 -353 -210 -357 -285 -27 -466 77 -42 177
-108 222 -147 45 -39 96 -73 112 -75 146 -21 294 -503 196 -637 -28 -39 -228
-48 -415 -19 -69 11 -120 -15 -79 -40 62 -38 85 -140 40 -177 -24 -19 -40 -38
-36 -42 4 -3 26 -17 48 -29 36 -21 35 -23 -19 -18 -46 4 -61 -4 -66 -35 -5
-26 -1 -32 10 -16 13 19 37 18 110 -4 l94 -28 -4 49 c-2 27 -12 49 -22 49 -9
0 -12 14 -6 30 8 19 -1 31 -23 32 -22 1 -25 5 -8 11 14 6 39 0 55 -14 26 -21
29 -9 22 90 -6 78 -2 108 12 94 20 -20 23 -118 14 -456 -5 -190 60 -527 102
-527 7 0 13 -16 13 -35 -5 -119 36 -141 272 -148 154 -5 223 -15 229 -32 5
-14 25 -25 45 -25 20 0 40 -11 45 -25 7 -20 20 -19 61 3 45 24 67 24 158 -4
58 -18 157 -43 220 -57 62 -14 110 -30 106 -36 -3 -6 22 -12 57 -12 35 -1 122
-8 193 -16 163 -19 96 20 -131 76 -200 48 -209 52 -209 74 0 13 15 15 35 7
119 -50 374 -115 485 -123 215 -16 465 -13 550 7 l80 18 -130 25 c-71 13 -242
29 -380 35 -137 7 -313 24 -391 39 -273 53 -503 71 -642 48 -167 -26 -158 -48
-130 294 21 265 30 307 96 454 177 396 258 725 275 1103 4 110 14 233 22 273
13 70 -13 121 -40 77 -23 -37 -45 -21 -36 26 10 49 -20 85 -81 97 -28 5 -16
20 50 62 48 30 99 82 114 116 18 40 38 58 56 50 21 -7 28 1 23 28 -7 45 3 49
83 31 32 -7 76 -3 98 9 57 30 68 -18 15 -63 -38 -32 -39 -35 -6 -35 20 -1 31
-9 25 -19 -6 -10 2 -23 18 -29 17 -6 35 -2 42 8 6 11 20 14 31 8 10 -7 17 0
13 15 -3 14 -20 32 -37 39 -53 22 -37 102 22 109 28 3 39 1 25 -5 -42 -17 -28
-42 36 -64 44 -16 57 -15 47 1 -10 16 6 18 53 9 84 -17 102 -35 106 -101 2
-29 5 -52 7 -52 27 0 102 50 94 63 -6 9 12 17 39 17 62 0 113 19 113 42 0 10
-17 18 -39 18 -68 0 -63 35 7 48 160 30 119 100 -76 127 -43 6 -95 28 -115 48
-45 45 -77 48 -77 6 0 -24 -8 -26 -40 -9 -63 34 -54 104 10 80 33 -13 66 -12
98 3 34 15 58 15 88 -1 55 -29 64 -28 64 9 0 23 12 28 40 19 22 -7 67 1 100
17 33 16 64 22 70 13 5 -9 65 -11 132 -5 121 11 122 10 100 -32 -26 -47 -74
-57 -88 -18 -5 14 -16 18 -25 10 -9 -9 -2 -27 15 -40 73 -59 57 -97 -19 -45
-41 27 -86 50 -100 50 -14 0 -25 9 -25 20 0 31 -62 22 -139 -18 -76 -41 -43
-82 65 -82 27 0 79 -12 117 -27 37 -14 96 -24 132 -20 72 7 86 -23 30 -65 -33
-25 -33 -27 0 -27 47 -1 44 -17 -10 -62 -53 -44 -24 -50 84 -19 42 12 77 12
88 1 10 -10 30 -13 45 -7 16 6 28 0 28 -12 0 -12 15 -22 33 -22 31 0 31 3 0
37 -40 44 -42 65 -6 51 15 -6 33 4 40 21 19 50 55 36 42 -17 -8 -29 -2 -54 14
-65 38 -24 240 -86 282 -87 19 0 35 -9 35 -20 0 -11 -13 -20 -30 -20 -16 0
-30 -9 -30 -20 0 -38 118 -21 159 24 23 24 41 51 41 60 0 9 20 16 43 16 24 0
38 6 31 13 -13 12 -203 27 -405 32 -90 2 -101 7 -105 48 -4 58 24 75 77 46 23
-12 48 -17 55 -10 7 7 -8 18 -33 24 -75 20 -35 57 55 52 46 -3 130 6 188 21
95 25 107 24 142 -9 42 -40 172 -51 172 -15 0 15 24 18 70 9 98 -18 108 78 10
99 -33 7 -60 21 -60 32 0 10 -14 18 -31 18 -17 0 -26 9 -19 21 7 11 46 18 86
15 56 -5 74 2 80 29 6 30 -11 35 -130 37 -75 1 -226 5 -336 9 -738 27 -1190
27 -1190 -2 0 -16 -9 -29 -19 -29 -11 0 -15 14 -8 30 14 38 -27 41 -242 21
-30 -3 -40 -20 -41 -67 -2 -81 -19 -95 -78 -68 -39 17 -51 16 -60 -8 -19 -48
164 -101 314 -90 60 4 86 -5 124 -46 51 -55 59 -132 14 -132 -18 0 -24 12 -16
32 10 27 3 30 -43 20 -34 -8 -45 -7 -29 4 21 14 19 23 -7 44 -21 18 -37 20
-46 7 -11 -18 -62 -20 -198 -9 -14 1 -25 16 -25 32 0 37 4 38 -90 -10 -81 -41
-270 -56 -270 -21 0 42 254 332 578 661 366 371 462 488 428 522 -13 13 -62
-12 -148 -76z m-1842 -653 c-14 -16 -36 -24 -48 -19 -12 4 -34 -19 -48 -53
-30 -74 -104 -87 -93 -16 4 28 23 47 50 51 24 4 43 14 43 24 0 16 42 33 96 38
21 2 21 -3 0 -25z m540 -160 c4 -19 -6 -33 -25 -33 -18 0 -31 17 -31 42 0 48
47 42 56 -9z m-53 -60 c15 -27 15 -34 -1 -24 -12 7 -23 2 -24 -13 -2 -14 -10
1 -20 34 -14 52 -16 49 -9 -25 4 -47 -1 -85 -11 -85 -21 0 -25 167 -4 187 13
13 27 -2 69 -74z m2197 9 c0 -43 -71 -64 -136 -39 -71 26 -32 77 58 77 63 0
78 -7 78 -38z m-2740 -52 c15 38 17 38 31 4 23 -57 -24 -91 -60 -43 -16 21
-29 53 -29 69 0 17 10 8 21 -20 20 -48 22 -48 37 -10z m3100 -12 c0 -10 -7
-16 -15 -14 -8 3 -40 -12 -70 -32 -67 -45 -175 -14 -175 50 0 32 11 36 87 25
57 -8 93 -4 102 12 16 25 71 -7 71 -41z m-688 -27 c21 -21 73 -28 198 -26 92
2 175 -3 182 -11 8 -8 -17 -14 -55 -14 -39 0 -115 -13 -169 -30 -151 -46 -268
-9 -268 83 0 36 76 34 112 -2z m856 -27 c14 -24 -13 -57 -60 -72 -47 -14 -100
32 -79 67 16 25 124 28 139 5z m-2921 -106 c-23 -23 -59 -38 -80 -34 -31 7
-27 13 23 41 83 46 107 43 57 -7z m290 -68 c5 5 -1 10 -14 10 -12 0 -23 10
-23 23 0 13 18 6 42 -14 23 -21 32 -41 19 -45 -12 -4 -16 -16 -10 -25 16 -27
-112 1 -179 39 -104 58 -81 80 40 40 63 -21 119 -34 125 -28z m262 -121 c-27
-28 -77 -69 -111 -90 -64 -40 -112 -132 -58 -112 17 7 44 -15 68 -54 55 -89
161 -393 137 -393 -11 0 -14 -20 -6 -45 39 -126 -25 -275 -119 -275 -52 0 -52
40 0 63 62 29 59 84 -5 93 -46 7 -61 52 -25 74 11 7 20 3 20 -9 0 -30 59 -26
63 4 2 14 5 48 7 75 2 28 11 71 19 97 l15 47 -42 -42 c-49 -49 -132 -55 -174
-12 -26 26 -21 28 44 25 58 -4 74 3 79 32 4 27 -4 34 -31 27 -23 -6 -40 3 -45
24 -7 27 2 33 46 26 61 -9 100 29 49 49 -27 10 -28 16 -7 29 21 13 19 17 -8
18 -19 0 -34 7 -33 15 9 56 -72 115 -129 94 -15 -6 -56 17 -92 50 -36 34 -73
61 -83 61 -10 0 -18 9 -18 19 0 30 138 48 190 25 49 -22 183 44 248 123 15 19
32 29 38 23 6 -5 -11 -33 -37 -61z m-818 -82 c62 -24 80 -42 73 -68 -7 -25 -1
-33 18 -25 36 13 36 -9 -1 -45 -34 -35 -59 -38 -39 -6 9 14 5 18 -8 9 -21 -12
-101 21 -125 52 -22 30 -158 5 -187 -35 -24 -31 -34 -34 -55 -14 -32 32 -122
32 -153 1 -19 -19 -24 -14 -24 20 0 31 12 44 41 44 23 0 74 23 115 50 88 60
222 67 345 17z m359 -79 c91 -37 100 -74 36 -142 l-44 -47 -41 46 c-89 98
-109 104 -105 33 4 -63 -49 -102 -77 -57 -17 28 67 175 106 185 19 5 37 10 40
12 2 1 40 -12 85 -30z m-405 -121 c11 7 25 -6 31 -29 8 -31 4 -38 -19 -30 -17
7 -39 12 -49 12 -10 0 -18 20 -18 45 1 33 5 38 18 17 10 -15 27 -22 37 -15z
m701 -32 c9 -45 -76 -84 -144 -67 -34 8 -47 22 -39 42 6 17 1 30 -12 30 -13 0
-19 8 -13 17 22 35 201 16 208 -22z m-260 -280 c125 -90 127 -143 6 -151 -133
-10 -176 8 -243 101 -110 151 49 185 237 50z m195 -309 c-16 -84 -114 -270
-149 -282 -33 -11 -27 87 8 116 17 14 30 33 30 44 0 24 100 196 114 196 6 0 4
-33 -3 -74z m168 -170 c-52 -181 -123 -278 -145 -196 -6 22 -1 40 9 40 11 0
14 18 7 39 -6 21 2 66 19 100 38 72 60 80 44 16 -10 -40 -7 -39 30 10 52 71
58 69 36 -9z m-329 -196 c-16 -31 -51 -74 -79 -95 -45 -36 -47 -42 -19 -82 18
-26 22 -44 9 -45 -11 -2 -30 -4 -41 -5 -11 -2 -18 -12 -16 -23 3 -11 16 -17
30 -14 15 3 21 -6 15 -23 -6 -15 3 -33 21 -40 26 -10 27 -20 9 -54 -26 -49 -6
-83 22 -38 16 24 18 24 19 -5 0 -19 -16 -44 -35 -56 -30 -19 -29 -20 10 -10
38 11 45 5 45 -40 0 -29 -9 -47 -19 -40 -12 6 -17 -19 -14 -62 5 -60 2 -67
-17 -41 -13 18 -30 27 -37 20 -7 -8 -1 -27 12 -43 27 -33 35 -148 12 -164 -8
-6 -19 -59 -24 -117 -9 -93 -33 -171 -33 -106 0 13 -15 23 -32 23 -28 0 -29 5
-5 33 24 30 21 32 -31 19 -51 -12 -56 -10 -46 27 5 23 4 45 -4 49 -7 5 -16 39
-18 75 -3 36 -16 72 -30 81 -25 16 -14 19 76 24 23 1 42 19 46 42 8 40 7 40
-22 0 -29 -37 -30 -36 -19 18 l11 58 -47 -47 -48 -48 -12 50 c-14 54 -7 79 23
79 11 0 14 -10 6 -23 -8 -14 -5 -18 7 -10 12 7 19 39 17 72 -2 32 2 54 11 49
8 -5 21 2 29 15 9 14 6 18 -9 9 -13 -8 -23 -5 -23 6 0 11 -20 16 -44 11 -33
-6 -38 -3 -20 15 42 42 30 88 -13 49 -43 -39 -74 -21 -33 19 37 38 46 36 124
-24 73 -55 95 -55 74 0 -7 19 -26 30 -41 24 -15 -6 -28 -4 -29 4 -18 164 2
225 120 356 100 111 163 127 112 28z m110 -138 l0 -47 41 52 c90 114 119 12
49 -167 -27 -69 -45 -132 -39 -141 5 -9 1 -22 -11 -29 -23 -14 -22 -16 -27
122 -3 113 -36 168 -100 168 -107 1 -122 102 -17 110 24 2 50 9 58 17 19 19
45 -29 46 -85z m-579 -389 c-15 -15 -21 -1 -21 50 0 92 28 120 36 36 4 -35 -3
-74 -15 -86z"/>
<path d="M2989 3059 c-8 -13 -2 -31 13 -41 43 -27 62 -21 54 15 -8 42 -47 57
-67 26z"/>
<path d="M2900 4009 c11 -29 20 -73 20 -100 0 -43 5 -46 51 -29 29 11 76 20
105 21 53 1 52 3 -36 80 -107 94 -170 107 -140 28z"/>
<path d="M0 3848 c0 -17 8 -25 19 -19 32 20 42 -23 11 -49 -35 -29 -39 -60 -9
-60 12 0 16 9 9 20 -7 11 0 20 15 20 46 0 42 111 -5 115 -24 1 -40 -10 -40
-27z"/>
<path d="M100 3864 c0 -8 18 -31 40 -49 22 -19 40 -28 40 -20 0 8 17 -10 37
-40 39 -60 63 -54 63 14 0 48 100 62 115 16 11 -32 47 -33 40 -1 -3 13 10 27
29 31 29 6 30 1 10 -44 -13 -28 -35 -47 -49 -42 -14 6 -25 1 -25 -10 0 -32 64
-21 94 16 16 19 23 24 16 10 -8 -17 3 -24 34 -23 25 0 35 6 21 11 -42 17 -29
64 15 53 22 -6 36 -16 32 -23 -5 -7 16 -14 45 -15 29 -2 42 1 28 6 -14 5 -21
17 -15 26 6 10 -8 23 -30 30 -22 7 -35 21 -29 31 6 11 2 19 -10 19 -11 0 -21
-9 -21 -20 0 -11 -10 -20 -22 -20 -12 0 -18 12 -12 26 7 19 -9 26 -58 25 -40
0 -68 -11 -68 -26 0 -14 -10 -25 -21 -25 -12 0 -16 9 -9 20 7 11 -8 20 -34 20
-25 0 -68 6 -94 13 -31 9 -44 6 -35 -8 7 -11 0 -26 -16 -32 -19 -7 -25 -1 -18
18 8 21 -4 29 -41 29 -29 0 -52 -7 -52 -16z"/>
<path d="M685 3865 c-33 -11 -32 -45 0 -45 28 0 86 -80 79 -107 -8 -26 38 -74
58 -62 10 6 18 22 18 35 0 14 -8 12 -20 -6 -17 -26 -19 -25 -20 4 0 19 18 44
40 56 32 17 40 15 40 -9 0 -18 11 -25 31 -18 45 17 -6 71 -54 56 -21 -7 -37
-2 -37 11 0 12 -8 17 -18 11 -9 -6 -30 5 -45 23 -24 30 -22 32 13 18 22 -9 67
-20 100 -25 33 -5 69 -20 80 -33 11 -13 42 -27 70 -30 46 -5 47 -4 12 22 -29
21 -32 32 -13 44 14 8 31 7 38 -3 15 -21 27 -21 120 1 41 10 75 8 88 -5 14
-14 6 -18 -27 -11 -42 9 -43 8 -13 -12 59 -37 39 -58 -46 -49 -52 5 -76 1 -68
-13 7 -11 1 -19 -14 -17 -51 7 -77 -1 -77 -23 0 -17 7 -17 27 -1 30 25 88 -57
66 -92 -17 -28 91 -4 122 27 14 14 25 39 25 57 0 17 8 31 19 31 10 0 24 17 30
38 9 27 29 37 72 34 32 -2 59 3 59 12 0 9 14 16 30 16 25 0 24 -6 -5 -37 -24
-25 -43 -31 -60 -17 -17 12 -35 10 -56 -7 -23 -19 -25 -29 -7 -40 13 -8 17
-25 9 -37 -7 -12 -21 -18 -31 -12 -20 13 -15 -30 9 -68 14 -23 22 -21 47 10
25 33 28 33 17 3 -6 -19 -3 -35 8 -35 10 0 19 10 19 21 0 12 9 16 20 9 37 -23
21 -70 -25 -70 -66 -1 -108 -31 -65 -47 44 -17 54 -16 43 2 -5 8 17 15 49 16
60 1 78 -20 33 -38 -15 -6 -12 -10 9 -11 18 -1 39 16 46 39 10 31 20 36 40 19
17 -14 31 -15 39 -2 6 11 29 16 50 12 28 -5 35 1 27 23 -9 25 -15 25 -28 4
-13 -20 -17 -21 -18 -2 0 14 -10 25 -21 25 -12 0 -15 -10 -7 -23 10 -16 0 -19
-34 -10 -26 7 -60 13 -75 13 -14 0 -23 11 -18 25 5 14 -10 34 -31 45 -70 36
-106 107 -48 96 28 -6 61 4 81 24 31 31 42 25 35 -18 -2 -9 15 -12 37 -6 24 6
42 0 42 -13 1 -13 11 -3 23 22 25 51 89 61 89 13 0 -32 -84 -76 -112 -58 -9 5
-28 -4 -41 -20 -21 -25 -17 -30 23 -31 l47 -2 -45 -18 c-68 -27 -54 -37 27
-18 40 9 85 11 100 5 16 -6 28 -1 28 10 0 12 26 14 70 4 40 -9 65 -8 59 2 -6
10 -4 18 6 18 10 0 35 14 56 31 38 31 38 32 -6 22 -25 -5 -40 -1 -34 9 15 24
1 23 -59 -5 -28 -13 -45 -32 -39 -43 7 -10 1 -15 -14 -10 -44 14 -45 56 -1 56
29 0 37 9 28 32 -11 29 3 31 116 17 137 -16 137 -16 228 -3 41 6 62 21 66 48
5 33 -3 38 -55 30 -37 -5 -61 0 -61 14 0 12 -10 22 -21 22 -12 0 -15 -10 -7
-23 9 -14 5 -18 -8 -9 -13 8 -39 5 -59 -5 -25 -13 -47 -11 -73 8 -54 40 -339
37 -324 -3 15 -38 -28 -36 -57 4 -29 40 -244 65 -220 26 11 -18 5 -20 -23 -9
-55 24 -211 32 -198 11 6 -10 -13 -11 -45 -2 -30 9 -102 13 -160 10 -58 -4
-105 0 -105 8 0 16 -78 23 -115 9z"/>
<path d="M3319 3715 c79 -86 101 -91 136 -35 24 37 20 40 -48 40 -41 0 -93 16
-115 35 -23 19 -11 1 27 -40z"/>
<path d="M278 3633 c-41 -31 -100 -153 -75 -153 12 0 25 18 31 40 8 29 19 35
41 22 17 -9 47 -12 68 -7 20 5 48 1 62 -9 14 -11 45 -14 69 -8 76 20 22 67
-80 70 -50 1 -86 -4 -81 -13 5 -8 -4 -15 -21 -15 -47 0 -16 57 35 64 33 5 36
9 12 19 -17 7 -44 2 -61 -10z"/>
<path d="M929 3630 c-31 -24 -32 -28 -5 -18 28 10 34 1 30 -50 -2 -41 -13 -59
-29 -53 -14 5 -25 3 -25 -6 0 -32 27 -42 54 -20 20 17 40 17 78 0 40 -19 56
-18 79 5 38 39 36 52 -7 52 -20 0 -47 11 -60 24 -19 19 -24 15 -25 -15 0 -37
-1 -37 -21 -3 -15 26 -14 44 3 66 21 24 19 27 -11 15 -25 -9 -32 -6 -22 10 19
31 7 29 -39 -7z"/>
<path d="M1940 3606 c-27 -28 -41 -46 -30 -40 26 13 79 -25 96 -71 7 -19 24
-35 38 -35 19 1 20 5 3 15 -13 9 -20 52 -17 100 7 99 -16 107 -90 31z"/>
<path d="M650 3620 c-7 -11 -7 -29 0 -41 9 -13 -5 -16 -38 -8 -49 13 -62 -1
-55 -55 1 -7 -16 -19 -37 -26 -41 -13 -56 -50 -20 -50 11 0 20 10 20 21 0 13
17 16 40 9 21 -7 55 -3 75 8 33 20 33 21 0 21 -19 1 -35 9 -35 19 0 27 107 41
135 18 39 -32 153 20 123 56 -12 15 -32 22 -43 15 -10 -7 -28 0 -39 15 -15 21
-17 19 -8 -9 10 -28 5 -35 -19 -25 -18 6 -46 12 -62 12 -16 0 -24 9 -17 20 7
11 8 20 2 20 -5 0 -15 -9 -22 -20z"/>
<path d="M108 3572 c0 -30 9 -44 25 -38 13 5 19 24 12 41 -8 21 -4 27 12 17
12 -8 23 -5 23 7 0 11 -16 21 -36 21 -25 0 -36 -15 -36 -48z"/>
<path d="M1800 3485 c-16 -6 -42 -26 -56 -43 -15 -18 -22 -22 -15 -9 12 25
-63 13 -79 -12 -19 -32 89 -70 115 -42 20 22 19 24 -3 11 -19 -11 -23 -9 -14
7 8 13 28 23 44 23 18 0 24 10 16 23 -10 16 -4 20 15 12 18 -7 30 0 30 17 0
30 -6 31 -53 13z"/>
<path d="M726 3435 c8 -21 3 -36 -12 -36 -13 -1 -4 -9 19 -19 32 -13 41 -29
33 -59 -6 -23 -1 -41 11 -41 12 0 17 16 11 35 -10 30 -7 30 20 -3 33 -40 132
-63 132 -31 0 16 -41 27 -83 22 -7 -1 -29 17 -48 39 -30 32 -31 37 -5 27 18
-6 38 -1 46 12 11 17 19 17 31 -2 9 -15 35 -28 57 -29 23 -2 38 1 32 7 -5 5 0
20 11 34 15 19 1 27 -62 33 -56 5 -87 -2 -98 -21 -12 -22 -24 -18 -61 20 -34
34 -43 38 -34 12z"/>
<path d="M1026 3413 c7 -17 4 -37 -7 -44 -33 -20 -21 -109 16 -123 19 -7 42
-23 50 -35 9 -12 15 -7 15 14 0 19 -15 35 -33 35 -30 0 -30 3 -3 35 17 19 27
49 22 65 -6 19 -3 22 7 9 30 -39 83 -47 108 -18 27 33 -21 64 -61 39 -12 -7
-45 2 -74 21 -46 30 -51 30 -40 2z"/>
<path d="M1331 3408 c-27 -27 -28 -38 -7 -63 23 -28 17 -30 -49 -20 -41 7 -80
4 -86 -7 -6 -10 -22 -13 -35 -5 -13 7 -17 6 -9 -3 8 -9 5 -28 -8 -43 -14 -18
-15 -27 -1 -27 11 0 24 11 29 25 6 18 18 15 43 -10 32 -32 32 -35 1 -35 -21 0
-29 -11 -22 -29 17 -46 -147 -51 -192 -6 -46 46 -66 44 -66 -5 0 -22 11 -40
25 -40 14 0 26 -16 26 -35 0 -22 6 -27 15 -13 15 23 89 8 86 -18 0 -8 4 -14 9
-14 73 0 79 3 40 20 -36 15 -36 17 -4 19 20 0 31 10 24 21 -11 19 28 29 83 22
13 -2 31 8 39 21 10 16 4 20 -20 11 -20 -8 -29 -6 -22 6 21 33 29 102 11 91
-9 -6 -21 1 -27 15 -7 19 6 24 48 18 34 -5 58 -21 58 -38 0 -20 13 -25 40 -16
28 9 40 4 40 -19 0 -17 9 -31 19 -31 11 0 15 16 8 35 -9 29 -7 30 10 6 30 -43
56 -6 28 39 -18 29 -19 42 -1 53 16 9 11 19 -15 28 -22 8 -50 5 -64 -6 -18
-14 -25 -11 -25 13 0 22 18 32 55 32 43 1 48 5 25 20 -43 28 -73 25 -109 -12z"/>
<path d="M4615 3426 c-55 -14 -41 -46 20 -47 53 -1 53 -2 10 -20 -68 -27 -55
-62 20 -55 49 4 65 16 66 46 3 76 -32 98 -116 76z"/>
<path d="M5589 3422 c6 -11 -42 -14 -114 -9 -96 7 -117 4 -90 -13 19 -12 82
-25 140 -29 164 -12 234 -32 256 -73 34 -64 219 -55 219 10 0 37 -9 46 -37 39
-22 -6 -42 2 -49 20 -9 23 -44 30 -147 29 -82 0 -138 8 -143 22 -4 12 -16 22
-27 22 -11 0 -14 -8 -8 -18z"/>
<path d="M540 3399 c0 -12 -8 -16 -19 -10 -10 6 -24 3 -31 -9 -13 -22 -7 -24
75 -30 30 -2 55 4 55 13 0 9 -14 17 -31 17 -17 0 -26 9 -19 20 7 11 3 20 -9
20 -11 0 -21 -10 -21 -21z"/>
<path d="M0 3368 c0 -17 9 -25 20 -18 10 6 38 2 61 -10 27 -15 50 -16 65 -3
44 36 124 -2 99 -47 -6 -11 -4 -13 5 -5 9 8 29 4 44 -8 21 -18 24 -16 16 6
-13 33 74 89 106 69 11 -6 24 -1 29 13 7 18 -16 23 -88 18 -53 -4 -97 -16 -97
-27 0 -14 -8 -14 -25 -1 -47 37 -235 47 -235 13z"/>
<path d="M1607 3329 c-7 -17 -7 -36 -1 -42 6 -6 3 -33 -7 -59 -11 -30 -11 -48
1 -48 11 0 20 12 20 28 0 15 23 32 50 37 34 6 50 0 50 -18 0 -29 19 -34 68
-15 18 7 32 29 32 50 0 24 10 33 30 25 17 -6 30 -3 30 6 0 23 -81 73 -95 58
-7 -6 -1 -11 11 -11 13 0 17 -14 11 -31 -9 -23 -18 -25 -39 -7 -20 17 -28 17
-28 0 0 -29 -94 -29 -112 1 -10 16 -4 20 18 11 18 -7 37 -5 43 5 6 9 -3 22
-21 29 -44 17 -48 16 -61 -19z"/>
<path d="M498 3291 c-2 -6 -5 -20 -8 -31 -3 -11 -6 -25 -7 -31 -2 -7 -17 2
-34 20 -44 43 -75 40 -52 -4 16 -29 10 -35 -34 -36 -29 -1 -69 -9 -88 -18 -25
-11 -35 -6 -35 16 0 40 -114 36 -130 -4 -7 -18 0 -24 19 -16 16 6 35 3 42 -8
15 -25 102 -24 151 2 46 25 97 3 55 -23 -17 -11 -2 -13 38 -6 49 10 67 5 77
-20 10 -25 19 -28 39 -11 15 12 38 16 52 7 16 -10 20 -4 11 19 -7 18 -11 33
-8 33 2 0 33 8 69 19 40 11 65 11 65 0 0 -11 -13 -19 -30 -19 -49 0 -34 -32
15 -33 25 -1 54 -5 65 -9 11 -4 44 17 74 47 30 30 43 56 30 58 -13 1 -46 6
-74 11 -47 8 -108 10 -165 6 -35 -3 -80 8 -110 27 -14 8 -26 10 -27 4z m122
-67 c0 -8 -27 -31 -60 -51 -33 -19 -60 -30 -60 -24 0 6 0 16 0 21 0 6 5 10 11
9 6 0 24 13 41 30 33 33 68 41 68 15z m205 -19 c-5 -14 -17 -20 -27 -14 -10 6
-18 2 -18 -10 0 -11 -8 -21 -19 -21 -10 0 -17 17 -16 38 2 25 17 36 47 35 25
-2 39 -13 33 -28z"/>
<path d="M3716 3266 c-13 -48 49 -115 109 -119 68 -4 74 -7 63 -35 -6 -15 -30
-28 -54 -29 -91 -2 -144 -19 -138 -43 3 -13 -5 -37 -18 -52 -12 -15 -20 -29
-15 -30 58 -13 97 -7 97 15 0 15 -9 27 -20 27 -11 0 -20 10 -20 21 0 13 17 16
43 8 26 -8 37 -6 29 7 -8 13 14 19 58 15 47 -4 70 3 70 21 0 41 27 47 70 15
40 -29 40 -30 1 -58 -35 -27 -36 -29 -3 -29 20 0 58 17 85 38 l48 39 -70 25
c-92 34 -90 51 4 44 67 -5 64 -3 -25 20 -55 14 -127 25 -160 25 -61 -2 -117
36 -134 88 -6 21 -12 18 -20 -13z"/>
<path d="M4530 3240 c-14 -22 -9 -24 50 -24 71 0 83 4 70 24 -7 11 -34 20 -60
20 -26 0 -53 -9 -60 -20z"/>
<path d="M4904 3228 c-14 -16 -47 -25 -72 -20 -26 5 -45 -2 -45 -15 0 -16 83
-23 285 -23 318 0 363 31 73 49 -96 6 -184 17 -195 24 -11 7 -32 0 -46 -15z"/>
<path d="M1460 3168 c0 -25 -16 -31 -69 -24 -37 4 -64 1 -59 -7 5 -8 0 -20
-12 -27 -58 -36 10 -78 80 -49 6 2 18 2 27 1 10 -2 13 10 6 27 -6 17 -3 31 8
31 40 0 17 -62 -31 -80 -27 -10 -50 -25 -50 -32 0 -7 14 -7 30 -1 17 7 30 3
30 -8 0 -10 16 -19 35 -19 30 1 31 4 5 22 -23 16 -24 24 -5 31 14 6 25 32 25
59 0 26 9 48 19 48 11 0 15 14 8 30 -15 40 -47 38 -47 -2z"/>
<path d="M100 3140 c0 -12 -21 -15 -50 -8 -41 10 -50 5 -50 -30 0 -24 13 -42
30 -42 17 0 30 9 30 20 0 11 16 20 35 20 20 0 26 -7 15 -15 -26 -19 -37 -72
-12 -56 10 6 22 2 26 -10 5 -16 35 -15 102 2 74 19 101 18 124 -1 25 -20 30
-19 30 10 0 28 -14 33 -75 25 -106 -13 -171 14 -155 65 9 28 4 40 -19 40 -17
0 -31 -9 -31 -20z"/>
<path d="M4200 3133 c0 -30 -11 -34 -65 -25 -49 9 -55 7 -25 -7 22 -10 76 -19
120 -21 64 -2 72 -6 40 -20 -38 -16 -37 -17 6 -19 26 0 41 -10 35 -20 -7 -10
6 -29 28 -41 37 -19 49 -13 44 23 -1 7 16 17 38 23 21 6 34 2 28 -7 -16 -27
118 -57 138 -31 9 13 11 -2 5 -32 -16 -70 0 -77 117 -52 82 17 100 16 115 -12
18 -32 116 -46 116 -17 -1 30 -31 55 -70 58 -85 5 -134 21 -151 48 -13 20 -18
21 -19 4 0 -14 -8 -25 -17 -25 -19 0 -15 69 7 124 11 28 5 33 -32 26 -25 -5
-52 1 -60 13 -9 15 -24 16 -51 0 -33 -19 -30 -23 28 -35 103 -21 76 -46 -39
-37 -61 6 -111 21 -120 37 -9 17 -39 26 -71 22 -30 -3 -66 3 -80 14 -14 12
-25 13 -25 3 0 -9 -9 -3 -20 13 -16 25 -19 24 -20 -7z"/>
<path d="M5920 3145 c0 -18 -45 -25 -160 -25 -88 0 -160 -8 -160 -19 0 -31 73
-44 215 -38 74 3 146 -2 160 -10 18 -11 25 2 25 46 0 33 -9 61 -20 61 -11 0
-20 -11 -20 -25 -1 -17 -7 -15 -20 5 -13 20 -19 22 -20 5z"/>
<path d="M1750 3120 c-55 -8 -91 -15 -80 -17 11 -2 7 -12 -10 -23 -18 -12 -20
-20 -6 -20 13 0 29 9 36 20 7 11 48 20 91 20 44 0 79 9 79 20 0 11 -2 19 -5
17 -3 -2 -50 -9 -105 -17z"/>
<path d="M4807 3112 c-67 -24 -65 -112 4 -112 17 0 26 9 19 20 -7 11 -3 20 8
20 11 0 16 12 10 27 -6 16 6 32 30 38 38 10 39 8 8 -38 -41 -62 -21 -81 43
-40 46 31 49 31 37 0 -10 -27 -5 -31 26 -18 71 29 215 39 200 14 -10 -16 13
-23 77 -23 50 0 91 -9 91 -20 0 -28 -94 -31 -235 -9 -48 8 -65 3 -65 -18 0
-49 51 -78 79 -44 19 23 34 24 73 6 37 -16 55 -16 73 2 13 13 89 24 184 24
188 2 273 23 191 48 -27 9 -108 43 -180 76 -71 33 -152 59 -180 58 -116 -6
-256 -4 -340 4 -49 4 -118 -2 -153 -15z m571 -30 c22 -14 19 -20 -13 -30 -44
-14 -105 3 -105 30 0 23 81 23 118 0z"/>
<path d="M695 3095 c30 -62 155 -114 182 -76 19 28 25 27 52 -8 24 -30 26 -42
6 -55 -33 -20 4 -18 55 4 28 12 31 18 10 20 -16 1 -50 28 -75 59 l-45 57 45
-11 c38 -9 41 -6 19 17 -22 24 -35 23 -84 -6 -38 -22 -64 -26 -72 -13 -8 14
-19 14 -34 -1 -14 -14 -29 -10 -49 14 -26 32 -27 32 -10 -1z"/>
<path d="M495 3076 c-68 -18 -105 -56 -54 -56 12 0 16 -9 9 -20 -14 -22 46 -4
85 26 14 10 25 13 25 6 0 -7 17 -5 37 6 26 14 45 13 63 -4 21 -19 23 -17 13
13 -7 20 -13 41 -13 47 0 6 -13 0 -30 -14 -21 -17 -30 -18 -30 -2 0 25 -3 25
-105 -2z"/>
<path d="M1760 3059 c0 -12 -9 -16 -20 -9 -11 7 -20 -10 -20 -39 0 -28 9 -51
19 -51 11 0 15 13 8 30 -6 17 3 35 21 42 35 13 44 48 12 48 -11 0 -20 -10 -20
-21z"/>
<path d="M1900 3030 c17 -21 18 -30 2 -30 -12 0 -22 -12 -22 -27 0 -14 -22
-38 -50 -53 -27 -15 -63 -47 -79 -71 -19 -29 -59 -50 -110 -59 -45 -7 -81 -22
-81 -33 0 -11 -9 -14 -20 -7 -19 12 -256 -17 -350 -42 -33 -9 -35 -7 -10 12
23 17 14 20 -40 10 -114 -21 -260 -72 -260 -91 0 -10 16 -13 35 -6 29 9 30 7
6 -10 -21 -14 -38 -14 -57 2 -18 15 -31 16 -41 2 -16 -26 -49 -30 -263 -35
-93 -2 -188 -13 -210 -25 -41 -21 -227 -38 -208 -18 7 6 51 15 100 19 48 4 95
9 104 10 9 1 11 10 5 21 -24 38 15 45 323 59 24 1 55 14 70 29 15 15 49 32 76
38 28 7 91 23 140 36 50 13 117 25 150 27 33 1 89 18 124 37 79 43 135 45 66
3 l-50 -31 50 11 c28 7 104 12 170 12 l120 1 -110 39 c-132 46 -190 49 -292
13 -43 -15 -129 -33 -192 -40 -63 -7 -176 -36 -250 -65 -75 -28 -149 -51 -166
-51 -70 -1 -237 -59 -247 -87 -7 -16 -22 -30 -34 -30 -12 0 -15 10 -8 22 18
28 -51 8 -157 -46 -141 -70 30 -146 250 -111 59 10 71 6 63 -16 -7 -18 1 -29
22 -29 18 0 28 8 22 19 -15 24 23 47 51 30 16 -10 14 -20 -5 -33 -61 -43 783
47 1005 106 152 41 291 45 285 8 -2 -11 7 -32 19 -47 17 -21 14 -34 -14 -54
-42 -31 -40 -240 3 -285 37 -39 30 -80 -17 -105 -52 -28 -60 -20 -64 69 -3 62
-7 68 -29 39 -15 -21 -17 -42 -6 -56 11 -13 11 -34 1 -51 -33 -53 14 -101 89
-89 53 9 70 3 79 -25 8 -25 30 -35 72 -34 86 2 89 17 10 48 -39 15 -70 35 -70
44 0 9 -25 11 -55 3 -49 -12 -52 -10 -29 18 15 18 39 28 54 22 25 -9 32 124
11 203 -15 53 2 90 40 90 33 0 37 7 20 37 -11 21 -15 43 -9 48 6 6 0 49 -12
95 -13 47 -23 134 -23 194 0 75 -9 112 -28 119 -42 16 -35 38 20 63 59 27 90
120 49 146 -44 28 -65 21 -38 -12z m-210 -390 c-165 -70 -450 -122 -450 -81 0
20 12 25 65 28 14 1 58 13 98 26 41 13 92 19 114 14 22 -6 56 -1 76 10 21 12
60 21 87 21 46 -1 47 -2 10 -18z"/>
<path d="M4130 3040 c-52 -20 2 -47 74 -36 45 7 45 8 6 29 -22 12 -58 15 -80
7z"/>
<path d="M45 2979 c-63 -25 -56 -34 17 -23 40 6 69 -1 80 -18 14 -23 17 -22
18 5 0 25 -46 64 -67 56 -1 -1 -23 -10 -48 -20z"/>
<path d="M4073 2984 c-10 -15 -29 -22 -44 -16 -18 6 -23 0 -15 -21 6 -17 -1
-40 -16 -51 -22 -15 -22 -21 -3 -29 15 -6 20 -29 13 -58 -12 -47 -11 -47 109
-36 96 9 129 4 154 -21 36 -36 79 -44 58 -11 -14 23 47 16 259 -31 64 -14 141
-23 170 -20 28 3 57 -3 64 -13 9 -15 349 -40 543 -39 30 0 55 -8 55 -19 0 -10
45 -19 100 -19 56 0 100 9 100 21 0 14 12 14 37 0 21 -11 43 -15 48 -9 24 23
173 -33 163 -61 -8 -19 7 -31 45 -37 32 -6 -42 -9 -163 -8 -328 3 -535 -8
-578 -30 -21 -12 -72 -20 -115 -20 -42 1 -82 -8 -89 -19 -8 -13 14 -18 59 -14
39 3 77 0 84 -7 7 -7 74 -8 148 -2 80 7 163 2 205 -12 38 -13 87 -27 108 -31
21 -4 77 -22 124 -39 47 -17 81 -23 75 -13 -7 10 -45 29 -86 43 -41 13 -115
46 -165 73 l-90 49 70 -12 c39 -7 84 -13 100 -13 268 0 333 -4 349 -20 34 -34
51 -21 51 38 0 39 -14 64 -45 79 l-45 21 45 2 c32 1 45 13 45 42 0 23 -8 36
-18 30 -26 -16 -84 10 -71 31 6 10 -18 19 -55 20 -82 3 -87 4 -187 34 -163 48
-431 40 -503 -14 -50 -37 -71 -43 -92 -26 -15 13 -81 22 -148 21 -66 0 -138 8
-158 18 -21 11 -49 16 -62 11 -13 -5 -51 6 -84 23 -34 18 -64 31 -67 30 -3 -1
-20 4 -38 11 -18 7 -68 3 -110 -8 -50 -14 -79 -15 -84 -2 -3 11 -23 20 -43 20
-19 0 -41 13 -47 29 -9 24 18 30 143 35 144 6 151 8 105 34 -46 26 -131 31
-265 14 -34 -4 -50 2 -42 14 7 12 -4 16 -30 9 -29 -7 -44 0 -48 22 -6 26 -11
27 -23 7z m7 -103 c0 -11 13 -15 28 -9 15 6 34 1 41 -11 8 -12 24 -15 37 -7
14 7 12 -1 -4 -20 -20 -26 -34 -29 -54 -13 -14 13 -37 16 -49 8 -25 -15 -63
29 -46 55 13 22 47 20 47 -3z"/>
<path d="M5770 2980 c-40 -17 -40 -17 0 -21 108 -9 187 -8 174 4 -26 24 -134
35 -174 17z"/>
<path d="M561 2951 c-13 -16 -35 -24 -49 -19 -33 13 -82 -43 -53 -61 11 -7 38
-3 60 9 34 18 38 16 28 -15 -12 -33 -11 -33 25 1 31 29 33 38 10 53 -22 13
-20 18 10 24 24 5 30 13 15 22 -12 8 -33 2 -46 -14z"/>
<path d="M700 2928 c0 -26 -6 -28 -28 -10 -21 18 -30 16 -40 -9 -21 -55 -14
-76 16 -51 17 14 51 18 82 10 l55 -13 -35 52 c-40 61 -50 65 -50 21z"/>
<path d="M1958 2882 c-25 -85 -10 -222 26 -222 15 0 18 38 9 119 -11 104 -8
118 20 107 27 -10 28 -6 9 31 -32 58 -37 55 -64 -35z"/>
<path d="M202 2901 c-19 -12 -18 -18 8 -28 33 -13 24 -53 -12 -53 -11 0 -14
10 -6 23 8 13 3 19 -11 14 -54 -18 -15 -47 64 -48 95 0 135 8 135 30 0 21 -66
19 -95 -4 -18 -15 -25 -9 -25 21 0 50 -22 67 -58 45z"/>
<path d="M5710 2871 l-55 -50 153 3 c83 2 152 10 152 18 0 19 -81 48 -116 41
-15 -3 -39 4 -54 17 -20 16 -39 10 -80 -29z"/>
<path d="M3784 2848 c-32 -34 -15 -42 111 -52 90 -7 104 4 55 44 -21 17 -30
18 -30 2 0 -31 -40 -28 -78 6 -28 24 -36 24 -58 0z"/>
<path d="M4874 2787 c7 -18 44 -27 112 -27 124 0 103 31 -29 45 -74 8 -91 4
-83 -18z"/>
<path d="M2047 2662 c6 -81 20 -157 31 -168 14 -14 13 -33 -1 -59 -15 -29 -15
-36 1 -26 12 7 22 0 22 -18 0 -17 -10 -31 -21 -31 -12 0 -15 -11 -7 -23 10
-17 3 -19 -23 -10 -36 14 -36 13 0 -26 20 -22 42 -36 50 -32 26 17 104 -94
105 -149 0 -44 40 -78 65 -55 18 17 21 36 9 59 -26 49 -22 76 12 76 16 0 29
-7 28 -15 -8 -50 9 -78 63 -102 34 -15 67 -22 73 -15 7 6 24 2 38 -10 19 -16
51 -4 122 45 72 50 87 68 60 73 -20 4 -49 -4 -66 -18 -22 -18 -35 -19 -53 -1
-13 13 -39 23 -59 23 -20 0 -36 9 -36 20 0 11 -13 20 -30 20 -16 0 -29 7 -28
15 7 40 -5 52 -22 25 -16 -25 -19 -24 -20 6 0 41 -21 65 -115 131 -35 25 -63
51 -61 59 1 8 -5 30 -13 49 -9 20 -11 53 -5 75 6 22 2 40 -8 40 -10 0 -18 17
-18 39 0 21 -23 64 -51 95 l-52 56 10 -148z"/>
<path d="M3659 2758 c-17 -32 -14 -38 20 -38 28 0 41 -13 41 -42 0 -29 9 -39
30 -31 16 6 27 2 25 -10 -3 -11 15 -29 40 -38 34 -14 45 -11 45 12 0 16 -16
29 -35 30 -87 1 41 41 135 42 55 0 100 9 100 19 0 18 -83 26 -177 18 -30 -2
-42 5 -34 18 7 12 4 22 -7 22 -11 0 -29 -16 -40 -35 -21 -38 -42 -27 -50 27
-7 48 -68 53 -93 6z"/>
<path d="M4270 2687 c-44 -16 -119 -30 -166 -31 -47 -2 -90 -10 -96 -20 -6 -9
-19 -12 -29 -5 -10 6 -35 2 -54 -9 -33 -20 -33 -21 1 -21 19 -1 40 -14 47 -31
6 -16 19 -25 29 -19 10 7 13 20 7 30 -6 11 0 20 15 21 14 0 42 4 61 8 19 3 31
-1 25 -10 -6 -10 -2 -22 8 -29 11 -6 25 7 32 29 16 49 47 53 43 5 -2 -19 9
-33 23 -30 15 4 23 -1 18 -10 -12 -19 38 -67 53 -51 7 6 26 0 43 -14 24 -20
30 -20 30 1 0 16 11 11 29 -12 27 -35 30 -36 30 -4 1 38 33 48 44 15 4 -12 34
-25 67 -31 40 -6 51 -4 33 8 -21 14 -22 21 -3 33 14 8 31 5 39 -8 8 -13 29
-18 48 -11 18 8 33 4 33 -8 0 -15 16 -16 48 -4 27 10 65 19 85 19 21 0 107 1
193 1 100 1 152 8 144 21 -7 11 -30 20 -52 20 -22 0 -44 14 -51 30 -6 17 -20
30 -31 30 -11 0 -16 -12 -10 -26 7 -20 -22 -18 -128 9 -173 44 -318 61 -318
38 0 -10 10 -21 23 -25 13 -5 -46 -8 -130 -9 -84 0 -153 7 -153 16 0 9 13 17
29 17 18 0 25 12 18 30 -7 19 1 30 21 30 18 0 32 9 32 20 0 27 -34 23 -130
-13z"/>
<path d="M3645 2460 c-30 -48 -32 -67 -5 -50 11 7 20 2 20 -11 0 -15 20 -11
55 12 45 30 50 30 29 4 -30 -36 58 -64 184 -57 34 1 114 4 177 6 63 2 115 9
115 16 0 15 56 11 100 -7 36 -14 232 -7 249 9 15 15 -391 59 -446 48 -24 -4
-43 0 -43 10 0 9 -49 16 -109 14 -69 -1 -104 -10 -96 -23 7 -12 -2 -9 -20 6
-18 14 -41 22 -51 16 -9 -6 -42 2 -73 18 -67 35 -57 37 -86 -11z"/>
<path d="M13 2426 c-25 -25 -12 -41 37 -51 28 -5 50 -2 50 7 0 23 -72 59 -87
44z"/>
<path d="M4620 2395 c0 -18 -13 -16 200 -25 94 -4 202 -14 240 -22 39 -9 95
-15 126 -15 39 1 53 -7 46 -26 -7 -17 5 -28 34 -29 24 -2 53 -4 64 -6 11 -2
97 -11 190 -19 94 -9 203 -25 244 -35 85 -22 255 -2 213 25 -15 9 -65 11 -112
5 -52 -8 -85 -5 -85 8 0 24 -67 43 -230 65 -66 10 -241 35 -390 58 -260 39
-540 47 -540 16z"/>
<path d="M650 2319 c-7 -10 -1 -19 14 -19 21 -1 20 -4 -1 -18 -35 -22 -8 -37
60 -34 35 2 49 -5 43 -22 -7 -18 -20 -20 -48 -5 -26 14 -38 14 -38 0 0 -12 11
-21 23 -21 13 0 18 -6 11 -13 -7 -7 -26 -2 -42 11 -16 14 -33 16 -40 6 -17
-28 9 -44 70 -44 30 0 59 -11 65 -25 6 -15 10 -11 11 10 2 29 13 33 57 22 53
-13 53 -12 19 22 -20 20 -32 47 -27 61 6 16 -8 22 -40 19 -29 -3 -66 10 -88
32 -21 21 -43 29 -49 18z"/>
<path d="M3701 2325 c-18 -7 5 -21 58 -37 111 -33 153 -12 48 24 -42 15 -77
27 -77 26 0 -1 -13 -6 -29 -13z"/>
<path d="M1392 2283 c-44 -5 -52 -11 -30 -24 23 -15 22 -18 -7 -19 -19 0 -35
-9 -35 -19 0 -11 15 -14 33 -7 23 9 29 5 19 -11 -10 -16 8 -23 57 -23 39 0 71
9 71 20 0 11 -19 17 -43 15 -23 -3 -47 8 -52 23 -8 21 2 25 40 15 33 -8 59 -2
75 17 26 32 30 31 -128 13z"/>
<path d="M324 2235 c-17 -36 -22 -38 -23 -10 0 19 -10 35 -20 35 -11 0 -14
-16 -7 -35 11 -31 8 -31 -31 3 -24 21 -49 32 -56 25 -8 -7 -1 -14 15 -14 15
-1 7 -10 -18 -20 -27 -11 -41 -28 -33 -41 10 -16 18 -16 27 -1 10 16 36 16 88
2 86 -24 122 -10 108 43 -6 21 -2 33 8 27 10 -6 18 -2 18 10 0 39 -54 22 -76
-24z"/>
<path d="M4050 2249 c55 -17 129 -40 164 -51 72 -22 363 -18 378 5 5 8 21 11
35 5 15 -5 26 4 26 20 0 17 -7 25 -17 20 -9 -6 -48 0 -87 12 -55 18 -77 18
-100 -1 -29 -24 -118 -22 -399 11 l-100 11 100 -32z"/>
<path d="M977 2245 c20 -15 16 -23 -20 -34 -39 -13 -41 -17 -12 -25 19 -5 35
-17 35 -26 0 -10 -16 -21 -35 -26 -19 -5 -10 -7 21 -5 31 3 61 -5 68 -15 7
-11 3 -14 -9 -7 -11 7 -26 0 -32 -16 -7 -19 -1 -25 18 -18 18 7 29 -1 29 -19
0 -17 -11 -34 -24 -39 -12 -4 -16 -18 -8 -31 19 -32 55 -31 51 1 -9 68 2 85
32 46 16 -21 29 -27 29 -14 0 14 8 20 18 14 10 -6 15 5 12 24 -4 19 -8 39 -8
44 -1 5 -12 -1 -24 -13 -37 -37 -85 -9 -54 31 13 18 17 27 8 19 -9 -8 -29 -2
-44 14 -36 35 -35 50 2 50 17 0 30 9 30 20 0 11 -8 20 -18 20 -10 0 -35 5 -55
12 -27 9 -30 7 -10 -7z"/>
<path d="M3613 2229 c6 -16 25 -29 41 -29 16 0 34 -18 40 -40 6 -22 19 -35 29
-28 10 6 13 18 7 27 -5 9 5 22 22 29 24 9 29 4 21 -19 -8 -18 -2 -29 12 -26
14 3 61 -3 105 -12 113 -25 112 -24 200 -29 63 -4 71 -8 40 -21 -64 -26 50
-49 244 -49 90 0 160 -6 155 -14 -5 -7 9 -18 31 -24 22 -6 45 -2 51 8 6 10 -5
19 -25 20 -24 1 -20 6 14 16 61 18 223 15 253 -4 13 -8 28 0 34 16 7 18 0 30
-18 30 -16 0 -29 14 -29 31 0 22 -15 30 -45 25 -25 -3 -45 -19 -45 -36 -1 -18
-17 -28 -40 -25 -22 2 -150 7 -283 9 -134 3 -235 11 -223 18 20 13 -142 70
-244 87 -27 4 -50 9 -50 10 0 2 -45 6 -100 10 -55 5 -124 17 -154 29 -45 17
-52 15 -43 -9z"/>
<path d="M500 2220 c-16 -10 -45 -15 -63 -9 -21 7 -36 -5 -43 -33 -9 -32 -6
-38 10 -22 15 15 34 16 58 3 25 -14 44 -10 67 12 55 55 34 90 -29 49z"/>
<path d="M4933 2216 c5 -9 -18 -16 -52 -16 -56 0 -59 -3 -36 -40 25 -41 95
-56 95 -20 0 11 14 20 31 20 19 0 26 9 17 23 -10 17 -3 19 24 9 21 -8 78 -22
127 -32 50 -9 93 -26 97 -38 4 -12 16 -22 27 -22 11 0 14 9 7 20 -8 14 50 20
169 18 99 -1 181 -10 181 -20 0 -10 -27 -18 -60 -18 -88 0 -73 -37 22 -53 55
-8 73 -18 55 -30 -19 -12 -14 -16 18 -17 25 0 45 10 45 22 0 12 14 17 32 10
17 -7 42 -6 54 2 13 8 59 13 103 11 45 -1 65 2 46 8 -52 15 -42 47 15 47 38 0
50 11 50 42 0 35 -8 40 -45 29 -25 -8 -65 -19 -90 -25 -25 -6 -45 -17 -45 -25
0 -20 -118 -1 -131 21 -6 10 -50 18 -97 18 -46 0 -137 10 -201 21 -162 30
-470 53 -458 35z"/>
<path d="M4725 2206 c-25 -5 -40 -17 -34 -27 6 -11 -3 -19 -21 -19 -18 0 -27
-9 -20 -20 21 -33 96 -9 113 37 9 24 14 42 11 40 -2 -1 -24 -6 -49 -11z"/>
<path d="M1264 2168 c-14 -15 -49 -28 -78 -28 -63 0 -56 -10 18 -27 43 -11 59
-4 77 29 27 50 18 64 -17 26z"/>
<path d="M76 2164 c-29 -5 -31 -13 -11 -44 17 -27 30 -32 48 -17 14 11 35 14
47 7 15 -9 10 -23 -14 -40 -20 -15 -29 -34 -21 -42 27 -26 95 -23 95 5 0 15
-14 21 -35 15 -30 -10 -29 -7 4 20 22 18 28 32 14 32 -14 0 -20 9 -13 20 7 11
-5 20 -27 20 -22 0 -43 7 -46 16 -4 8 -22 12 -41 8z"/>
<path d="M2047 2127 c-12 -5 -18 -26 -13 -48 6 -21 19 -34 28 -28 10 6 18 -6
18 -28 0 -45 41 -67 80 -43 44 27 40 77 -7 92 -23 8 -52 25 -63 39 -11 13 -30
21 -43 16z"/>
<path d="M861 2085 c-1 -31 11 -45 37 -45 21 0 43 -11 49 -25 5 -14 9 0 7 30
-3 52 -34 81 -34 31 0 -13 -13 -6 -29 15 -29 38 -30 38 -30 -6z"/>
<path d="M4954 2106 c-23 -6 -33 -21 -25 -39 6 -17 11 -33 11 -37 0 -3 37 -1
81 5 48 6 101 0 128 -15 34 -17 87 -21 180 -11 168 18 167 59 0 60 -66 1 -130
8 -144 17 -15 10 -25 7 -25 -5 0 -14 -22 -11 -59 8 -60 31 -82 34 -147 17z"/>
<path d="M360 2074 c0 -20 -8 -31 -18 -25 -23 14 -82 -8 -82 -31 0 -10 42 -13
93 -8 58 6 105 0 124 -15 25 -21 28 -20 14 3 -13 22 -7 26 27 17 35 -9 42 -5
34 18 -7 17 -12 41 -12 54 -1 15 -7 13 -18 -4 -13 -21 -27 -22 -58 -5 -31 16
-43 16 -51 -3 -7 -19 -15 -17 -31 5 -18 26 -21 25 -22 -6z"/>
<path d="M576 2048 c12 -65 38 -78 54 -28 11 35 17 36 41 12 16 -16 46 -24 69
-18 24 7 40 1 40 -14 0 -19 8 -18 34 3 18 15 28 17 21 5 -7 -12 -1 -21 13 -21
20 0 21 12 5 54 -16 44 -29 52 -62 41 -40 -14 -158 -11 -203 6 -13 5 -18 -10
-12 -40z"/>
<path d="M1485 2056 c5 -15 34 -24 67 -22 56 4 56 4 -11 -21 -63 -24 -65 -27
-25 -38 24 -6 44 -2 44 9 0 11 19 16 41 10 39 -10 40 -8 14 31 -31 47 -145 74
-130 31z"/>
<path d="M3620 1980 c0 -11 -16 -21 -35 -21 -28 -1 -26 -5 8 -19 24 -9 49 -27
56 -39 7 -11 22 -21 33 -21 11 0 16 8 10 17 -17 27 114 16 144 -11 31 -30 76
-15 92 30 7 19 17 45 24 59 6 14 2 25 -10 25 -12 0 -22 -13 -22 -29 0 -45 -39
-58 -76 -26 -53 46 -103 57 -148 33 -30 -16 -37 -16 -27 0 7 12 0 22 -18 22
-17 0 -31 -9 -31 -20z"/>
<path d="M4093 1984 c-15 -24 39 -35 207 -42 128 -5 160 21 35 29 -36 2 -102
10 -147 18 -50 9 -88 7 -95 -5z"/>
<path d="M60 1945 c0 -16 10 -21 23 -13 16 10 20 4 11 -18 -9 -25 -1 -33 32
-32 63 2 236 -21 256 -33 10 -6 9 10 0 35 -10 25 -30 43 -45 39 -15 -5 -44
-13 -65 -19 -29 -8 -34 -3 -21 18 14 24 12 24 -17 1 -29 -24 -34 -24 -34 2 0
20 -24 33 -70 39 -50 6 -70 0 -70 -19z"/>
<path d="M4694 1967 c-8 -7 -47 -20 -89 -28 -73 -14 -72 -14 30 -17 58 -1 105
6 105 16 0 10 18 14 40 8 22 -6 40 -1 40 12 0 23 -104 31 -126 9z"/>
<path d="M509 1942 c6 -11 -4 -23 -24 -29 -19 -5 -8 -7 25 -3 33 4 69 8 80 9
28 2 -34 40 -66 41 -15 0 -21 -8 -15 -18z"/>
<path d="M2160 1930 c0 -17 14 -36 30 -43 17 -6 31 -26 31 -44 1 -26 5 -24 18
7 19 47 12 63 -40 91 -31 16 -39 14 -39 -11z"/>
<path d="M5921 1941 c-11 -7 -93 -12 -181 -11 -97 1 -153 -5 -142 -16 10 -10
60 -15 110 -11 51 4 92 0 92 -8 0 -8 -24 -15 -54 -15 -97 0 -21 -37 84 -40
168 -6 170 -5 170 57 0 55 -32 73 -79 44z"/>
<path d="M1720 1929 c0 -7 14 -25 30 -42 27 -27 39 -21 32 18 -4 27 23 16 50
-20 24 -32 25 -31 15 10 -11 41 -127 72 -127 34z"/>
<path d="M3975 1926 c-39 -10 -48 -46 -12 -46 12 0 33 -12 45 -28 34 -43 172
-62 172 -23 0 17 -9 31 -19 31 -11 0 -14 15 -7 32 10 28 6 29 -29 11 -23 -13
-46 -34 -51 -48 -7 -17 -19 -13 -40 15 -17 22 -26 46 -21 55 5 8 7 14 3 13 -3
-2 -22 -7 -41 -12z"/>
<path d="M5150 1896 c-160 -23 -125 -36 97 -36 117 0 213 8 213 18 0 24 -193
36 -310 18z"/>
<path d="M590 1859 c-8 -12 -36 -19 -61 -14 -53 10 -76 -24 -45 -67 16 -22 17
-21 9 7 -8 23 -1 35 18 35 16 0 27 -11 24 -24 -3 -13 13 -27 35 -31 33 -6 35
-3 10 14 -26 19 -25 26 9 51 21 16 33 35 27 41 -7 6 -18 1 -26 -12z"/>
<path d="M3546 1842 c-28 -44 -15 -62 42 -62 32 1 35 5 14 18 -15 10 -22 32
-16 50 17 44 -11 40 -40 -6z"/>
<path d="M640 1840 c0 -11 9 -20 21 -20 12 0 -2 -22 -31 -48 -32 -30 -68 -45
-96 -40 -41 8 -41 8 -4 -9 38 -18 38 -20 4 -33 -23 -10 -32 -27 -24 -48 9 -24
7 -27 -11 -9 -29 29 -158 11 -195 -26 -16 -16 -18 -27 -5 -27 33 0 25 -54 -11
-68 -50 -19 -68 5 -47 60 23 60 10 89 -37 86 -31 -2 -31 -4 1 -12 38 -10 48
-46 13 -46 -12 0 -17 -13 -11 -30 7 -19 0 -30 -19 -30 -22 0 -27 12 -17 43 11
35 7 41 -20 30 -18 -7 -28 -4 -22 6 7 10 2 24 -10 31 -14 10 -14 22 2 42 19
22 17 28 -6 28 -36 0 -67 -66 -36 -76 42 -14 20 -38 -30 -33 -42 5 -47 1 -28
-23 27 -32 48 -38 29 -8 -17 28 17 25 46 -4 37 -37 29 -51 -26 -41 -30 6 -50
0 -50 -14 0 -13 11 -18 25 -11 14 7 9 0 -11 -17 -25 -20 -29 -34 -14 -43 12
-8 39 1 60 20 35 32 37 32 26 -8 -6 -24 -27 -42 -50 -42 -21 0 -34 -8 -28 -17
16 -25 103 -11 97 16 -4 15 14 21 50 17 35 -4 53 -16 49 -34 -5 -23 0 -24 23
-5 16 14 32 17 36 8 17 -39 174 -82 209 -56 33 24 33 26 -1 45 -24 14 -29 25
-14 34 13 8 23 5 23 -7 0 -11 18 -21 39 -21 27 0 36 -10 28 -30 -7 -19 1 -30
22 -30 18 0 28 8 22 18 -6 10 7 14 29 8 28 -7 40 -1 40 22 0 21 16 31 45 30
33 -2 36 -5 10 -12 -32 -8 -32 -11 0 -44 37 -38 133 -72 114 -40 -6 10 -2 18
10 18 12 0 32 22 44 49 20 43 26 45 53 18 24 -24 33 -25 46 -4 12 19 21 13 35
-23 12 -32 11 -59 -2 -75 -27 -34 24 -32 70 3 38 29 47 72 15 72 -11 0 -20 -9
-20 -20 0 -11 -8 -20 -19 -20 -10 0 -17 18 -16 39 2 22 7 35 12 30 19 -19 60
35 49 65 -10 26 -5 27 36 6 60 -32 79 -50 34 -34 -58 21 -58 -17 0 -81 45 -50
62 -58 92 -41 30 17 32 24 9 38 -20 13 -15 17 19 18 66 0 129 38 117 70 -6 15
2 32 18 38 16 6 23 24 17 41 -15 39 1 40 39 1 33 -33 118 -41 191 -19 30 10
44 8 36 -4 -19 -31 63 -18 91 13 21 24 20 24 -10 2 -25 -20 -35 -20 -35 -3 0
13 -8 18 -18 12 -10 -6 -23 12 -30 40 -7 28 -22 45 -33 38 -11 -6 -15 -19 -9
-29 18 -29 -72 -46 -97 -19 -18 19 -17 21 2 11 14 -8 25 -5 25 7 0 25 -53 28
-68 4 -6 -10 -34 -13 -62 -8 -39 8 -50 2 -50 -29 0 -21 -11 -49 -24 -62 -13
-13 -17 -24 -9 -24 9 0 4 -12 -11 -27 -14 -14 -43 -26 -64 -26 -36 0 -35 2 4
34 42 34 39 59 -8 59 -14 0 -28 -15 -32 -34 -6 -31 -9 -31 -41 2 -19 19 -35
29 -35 22 0 -6 -31 11 -68 40 -38 29 -74 43 -80 33 -15 -24 -92 -6 -92 22 0
11 -18 15 -40 9 -22 -6 -40 -2 -40 8 0 10 11 19 25 19 14 1 7 9 -15 18 -46 18
-86 3 -50 -19 13 -8 20 -22 17 -32 -4 -9 28 -27 72 -39 50 -14 70 -28 54 -37
-14 -9 -38 -4 -55 10 -17 13 -28 16 -26 6 16 -64 -28 -127 -79 -115 -125 30
-130 35 -83 77 35 31 49 34 80 15 26 -17 42 -18 51 -3 7 11 10 22 6 24 -4 2
-25 14 -47 26 -32 17 -47 16 -67 -6 -15 -16 -42 -23 -59 -16 -18 7 -27 6 -20
-1 17 -17 -47 -89 -80 -89 -14 0 -21 9 -14 20 7 12 21 15 31 9 24 -15 24 13
-1 51 -12 19 -20 21 -20 6 0 -14 -13 -20 -30 -13 -16 6 -30 22 -30 34 0 13
-32 24 -72 25 -80 1 -50 -41 47 -65 44 -11 66 -87 25 -87 -11 0 -20 13 -20 29
0 16 -10 35 -23 43 -14 9 -18 5 -9 -9 8 -13 6 -23 -5 -23 -10 0 -24 14 -30 30
-7 17 -23 30 -37 30 -18 -1 -17 -6 4 -20 27 -17 15 -29 -25 -22 -25 4 -17 -34
10 -45 19 -8 19 -10 -1 -11 -15 -1 -20 -12 -13 -24 10 -15 1 -15 -29 1 -48 26
-57 45 -12 28 32 -12 24 37 -15 88 -23 29 -3 93 23 76 11 -6 24 -3 31 7 12 19
132 14 175 -8 14 -7 8 2 -14 21 -28 23 -32 36 -15 43 14 5 25 21 25 35 0 15
18 31 40 37 31 8 40 0 40 -32 0 -30 6 -36 22 -20 15 15 16 33 0 62 -16 31 -14
46 9 65 25 20 26 29 5 42 -35 22 -56 21 -56 -3z m455 -345 c-36 -54 -88 -69
-88 -25 0 17 11 27 25 22 13 -5 30 3 36 19 6 16 21 29 34 29 15 0 13 -15 -7
-45z"/>
<path d="M880 1840 c0 -11 -23 -20 -51 -20 -53 0 -109 -40 -109 -79 0 -25 44
-19 64 9 8 11 24 21 35 23 12 1 30 3 40 5 28 3 68 82 42 82 -12 0 -21 -9 -21
-20z"/>
<path d="M3700 1840 c0 -11 43 -19 95 -18 85 2 89 4 35 18 -88 23 -130 23
-130 0z"/>
<path d="M4740 1839 c0 -12 11 -15 25 -7 15 8 18 7 8 -4 -9 -10 -22 -19 -30
-20 -7 -1 -30 -9 -52 -18 -25 -11 -41 -9 -46 6 -5 13 -28 24 -52 24 -46 -1
-116 -37 -83 -44 57 -11 510 -4 510 9 0 8 14 15 30 15 17 0 30 -9 30 -20 0
-11 10 -20 21 -20 12 0 16 9 9 20 -11 17 43 28 125 25 13 0 19 8 13 19 -7 10
-23 15 -36 10 -13 -5 -76 -1 -141 9 -65 10 -132 12 -149 5 -57 -25 -102 -28
-102 -8 0 11 -18 20 -40 20 -22 0 -40 -10 -40 -21z"/>
<path d="M27 1796 c3 -19 13 -42 22 -50 10 -9 11 -5 3 9 -33 57 52 49 114 -10
35 -33 76 -56 91 -50 15 5 34 -1 43 -15 11 -18 25 -19 58 -1 23 13 50 18 59
13 9 -6 16 1 16 15 0 16 -17 23 -44 18 -24 -5 -50 1 -58 13 -7 12 0 22 18 22
17 0 31 10 31 22 0 14 -19 18 -50 10 -39 -10 -50 -5 -51 23 0 33 -1 33 -21 0
-23 -40 -67 -48 -53 -10 7 18 -18 25 -87 25 -80 0 -95 -6 -91 -34z"/>
<path d="M932 1808 c-18 -46 -16 -48 39 -48 28 0 46 -8 41 -17 -6 -10 13 -18
43 -18 30 1 44 5 30 10 -35 12 -31 45 5 45 34 0 40 31 10 50 -11 7 -20 3 -20
-9 0 -22 -69 -18 -93 5 -22 23 -42 16 -55 -18z"/>
<path d="M1393 1807 c-7 -8 -13 -23 -13 -35 0 -12 9 -8 20 8 12 18 20 20 20 6
0 -39 -39 -51 -53 -16 -10 27 -16 28 -30 7 -14 -23 -20 -23 -34 0 -14 21 -20
20 -30 -6 -7 -18 -5 -28 5 -22 10 6 23 -3 29 -19 7 -17 21 -30 33 -30 35 0
139 85 128 103 -12 20 -56 22 -75 4z"/>
<path d="M5421 1791 c-19 -23 -45 -29 -82 -21 -31 7 -61 3 -69 -9 -7 -12 -46
-22 -86 -22 -1157 -1 -1118 0 -1034 -30 44 -16 98 -28 120 -26 22 2 72 -2 110
-10 97 -17 480 -26 480 -10 0 7 29 10 65 8 36 -2 108 8 161 24 127 36 166 19
64 -27 -55 -26 -134 -38 -250 -41 -221 -5 -228 -5 -217 -17 41 -40 552 -32
627 11 55 30 109 44 170 42 50 -2 117 5 150 14 l60 18 -50 21 c-55 23 -55 24
25 34 30 4 74 13 97 21 29 9 39 6 29 -9 -8 -13 1 -22 23 -22 20 0 70 -6 111
-13 65 -11 75 -7 75 27 0 36 -16 39 -195 41 -107 1 -232 8 -276 15 -62 10 -88
6 -108 -19z m-121 -131 c-38 -21 -92 -38 -120 -38 -36 0 -21 11 50 37 130 49
158 49 70 1z"/>
<path d="M1634 1786 c-20 -5 -33 -19 -29 -31 13 -39 44 -36 70 5 26 41 23 43
-41 26z"/>
<path d="M3920 1770 c-17 -21 -18 -30 -2 -30 37 0 25 -37 -20 -61 -25 -13 -38
-14 -30 -3 7 12 -4 16 -27 10 -38 -10 -38 -11 -1 -51 22 -23 51 -35 69 -28 17
6 31 5 31 -3 0 -8 54 -11 120 -7 66 4 120 15 120 25 0 15 -76 28 -124 21 -8
-2 -40 7 -70 19 l-56 21 50 38 c28 21 68 39 90 41 33 2 32 5 -10 18 -78 25
-113 22 -140 -10z"/>
<path d="M3674 1720 c-6 -22 -20 -40 -31 -40 -12 0 -17 16 -11 35 11 33 10 33
-18 0 -18 -23 -42 -31 -64 -22 -25 9 -33 5 -26 -15 5 -15 19 -28 31 -28 12 0
28 -7 37 -15 22 -22 52 -18 38 5 -7 11 2 20 20 20 18 0 27 -9 20 -20 -7 -11 7
-20 30 -20 26 0 55 23 76 60 25 44 44 57 74 48 32 -9 34 -7 10 10 -55 39 -174
27 -186 -18z"/>
<path d="M830 1720 c-7 -11 16 -17 59 -13 95 7 115 33 26 33 -40 0 -78 -9 -85
-20z"/>
<path d="M1085 1686 c31 -5 50 -17 44 -27 -6 -11 -1 -19 11 -19 12 0 17 -8 11
-18 -6 -10 3 -23 20 -30 18 -6 27 -19 22 -27 -5 -9 12 -26 39 -38 27 -13 48
-15 48 -4 0 10 -13 23 -30 30 -40 15 -18 47 32 47 22 0 36 -7 31 -16 -6 -9 -2
-29 8 -45 14 -23 18 -19 19 15 0 34 8 42 34 32 31 -12 31 -10 5 18 -16 17 -40
27 -55 21 -14 -5 -23 -2 -20 8 8 23 -25 29 -72 15 -30 -10 -32 -16 -10 -30 22
-14 21 -17 -7 -18 -20 0 -39 21 -47 50 -10 41 -24 49 -75 47 -61 -3 -61 -3 -8
-11z"/>
<path d="M5760 1660 l-50 -39 52 -1 c29 0 96 -5 150 -10 54 -6 85 -4 68 3 -16
7 -42 30 -56 50 -34 48 -101 46 -164 -3z"/>
<path d="M4212 1591 c10 -25 121 -25 254 0 49 9 74 6 74 -9 0 -12 25 -21 55
-19 47 2 49 4 10 11 -25 5 -45 18 -45 28 0 12 -74 18 -178 16 -130 -2 -176 -9
-170 -27z"/>
<path d="M5583 1577 c-37 -11 -64 -22 -60 -25 19 -14 295 15 286 30 -14 23
-139 20 -226 -5z"/>
<path d="M3574 1558 c-20 -12 -49 -17 -63 -11 -39 15 -53 -7 -30 -49 16 -30 8
-42 -51 -69 -38 -18 -64 -42 -58 -52 7 -11 24 -9 42 6 41 35 110 43 127 15 8
-13 25 -17 37 -9 12 7 18 22 12 31 -6 9 -2 23 10 30 11 7 20 2 20 -10 0 -12 8
-17 19 -11 10 6 23 -5 30 -24 6 -21 33 -38 62 -41 48 -3 49 -1 19 28 -17 18
-28 37 -23 42 18 17 93 -35 93 -65 0 -16 18 -29 40 -29 22 0 40 9 40 20 0 11
-16 20 -35 20 -29 1 -30 4 -6 19 16 10 36 14 45 9 27 -17 18 26 -10 49 -20 16
-34 15 -53 -2 -21 -20 -28 -20 -35 0 -5 14 -17 20 -27 15 -21 -13 -63 59 -45
77 16 16 -21 17 -62 1 -45 -17 -40 -46 13 -67 44 -18 44 -18 2 -20 -53 -1 -92
43 -75 86 14 38 11 39 -38 11z"/>
<path d="M5940 1560 c-27 -9 -104 -17 -170 -19 -150 -4 -95 -33 100 -53 l130
-14 0 53 c0 29 -2 52 -5 51 -3 -1 -27 -9 -55 -18z"/>
<path d="M3861 1526 c27 -19 61 -50 75 -70 15 -21 49 -35 80 -33 48 2 49 3 9
11 -25 5 -40 17 -34 27 6 11 -3 19 -20 19 -17 0 -31 8 -31 17 0 9 -23 27 -51
40 -73 33 -86 28 -28 -11z"/>
<path d="M3967 1516 c-9 -15 34 -18 143 -9 204 16 215 32 23 31 -86 -1 -158
-10 -166 -22z"/>
<path d="M4329 1518 c-9 -15 16 -17 84 -7 128 19 135 29 22 29 -51 0 -99 -10
-106 -22z"/>
<path d="M4951 1502 c-7 -12 -3 -22 9 -22 12 0 16 -10 9 -22 -9 -14 -49 -19
-107 -12 -66 8 -81 6 -52 -8 29 -14 13 -16 -60 -10 -101 9 -302 -29 -278 -53
7 -7 -36 -8 -95 -2 -59 6 -152 3 -207 -6 -55 -10 -131 -13 -170 -6 l-70 12 60
10 60 11 -58 -2 c-60 -2 -102 -52 -44 -52 18 0 32 -9 32 -19 0 -11 -13 -15
-30 -8 -16 6 -30 1 -30 -11 0 -12 18 -22 40 -22 45 0 116 -62 106 -93 -4 -11
11 -36 34 -57 22 -20 40 -27 40 -15 0 11 -13 26 -30 32 -16 7 -30 22 -30 35 0
13 14 17 35 8 41 -16 92 -28 175 -43 33 -5 96 -18 139 -27 43 -10 85 -14 93
-9 8 5 19 -6 26 -23 7 -19 25 -27 43 -20 17 6 26 3 19 -7 -13 -22 107 -90 126
-72 7 7 -8 18 -32 24 -49 13 -58 38 -19 54 16 6 14 10 -7 11 -30 2 -98 62 -98
87 0 6 34 -5 75 -25 41 -21 116 -53 165 -73 50 -20 95 -42 100 -49 30 -38 291
-92 268 -55 -11 17 21 20 124 10 600 -60 688 -61 688 -7 0 18 -38 26 -125 27
-234 3 -445 29 -515 66 -60 31 -310 78 -480 90 -27 1 -99 18 -160 35 -61 18
-150 29 -200 25 -109 -10 -179 7 -138 33 27 17 -161 7 -257 -13 -31 -7 -45 0
-45 21 0 16 -11 30 -24 30 -18 0 -18 6 1 25 20 20 28 19 41 -2 18 -30 139 -45
154 -19 6 9 -10 16 -36 16 -34 1 -39 5 -18 18 44 28 280 11 442 -33 83 -22
219 -42 302 -43 84 -2 183 -12 220 -23 37 -10 131 -19 208 -19 98 -1 131 -6
110 -20 -16 -11 -25 -20 -20 -21 6 -1 26 -6 45 -11 19 -4 51 -11 70 -16 19 -4
33 -17 30 -30 -3 -13 24 -22 66 -22 40 0 66 -8 60 -19 -18 -29 137 -64 192
-44 40 15 33 20 -57 32 -153 21 -128 81 27 65 96 -10 107 -7 107 27 0 41 -134
56 -379 43 -48 -2 -94 5 -101 16 -18 28 -328 79 -480 78 -125 -1 -387 46 -470
84 -30 14 -21 17 35 10 52 -7 72 -3 62 12 -9 15 -4 16 15 4 15 -10 42 -18 58
-19 17 -1 72 -8 123 -17 61 -10 107 -8 136 7 34 18 50 18 74 -1 24 -21 33 -20
47 2 13 21 24 22 44 5 16 -13 116 -24 239 -26 117 -2 223 -11 237 -19 47 -29
107 0 65 32 -47 35 -8 34 55 -2 30 -17 38 -29 20 -30 -27 0 -27 -3 0 -20 39
-25 66 -25 50 0 -15 24 -3 24 95 2 65 -15 75 -13 75 18 0 27 -28 40 -125 59
-169 32 -195 40 -195 64 0 12 12 17 27 11 15 -6 39 -2 55 8 19 12 2 17 -53 18
-45 0 -92 -11 -105 -24 -17 -17 -35 -17 -69 -1 -75 36 -115 45 -115 26 0 -10
16 -22 35 -27 29 -8 28 -10 -6 -12 -23 -1 -59 11 -80 27 -45 34 -169 41 -169
10 0 -12 9 -16 20 -9 11 7 20 3 20 -7 0 -11 16 -24 35 -29 19 -5 6 -10 -29
-12 -35 -1 -69 7 -76 18 -7 11 -32 21 -56 22 -34 2 -31 6 16 18 33 8 47 17 30
19 -16 2 -67 8 -113 14 -49 6 -88 1 -96 -11z"/>
<path d="M3486 1372 c-9 -15 -34 -32 -56 -38 -38 -9 -38 -11 5 -24 39 -13 42
-20 20 -46 -17 -21 -17 -27 -1 -18 13 8 29 6 36 -6 20 -33 70 -23 70 15 1 26
7 22 26 -15 22 -41 21 -54 -1 -71 -21 -15 -16 -21 24 -24 58 -5 65 18 20 64
-18 17 -24 32 -15 32 108 10 131 23 114 67 -10 26 -18 28 -42 9 -23 -19 -32
-19 -45 1 -13 21 -27 19 -68 -8 -56 -36 -66 -24 -54 65 4 33 -13 32 -33 -3z"/>
<path d="M3770 1300 c-15 -24 5 -60 33 -60 12 0 16 14 9 31 -8 23 -2 30 23 25
19 -4 33 -22 30 -39 -4 -20 13 -37 43 -45 26 -6 63 -17 80 -24 21 -8 32 -1 32
20 0 20 -17 32 -47 32 -26 0 -63 18 -83 40 -39 43 -100 53 -120 20z"/>
<path d="M90 1268 c22 -17 38 -39 35 -49 -9 -33 25 -20 49 19 27 43 1 63 -81
61 -43 0 -43 -1 -3 -31z"/>
<path d="M3674 1228 c-6 -7 -6 -25 0 -40 6 -16 -1 -43 -16 -61 -23 -27 -20
-37 17 -67 24 -19 39 -41 34 -48 -5 -7 2 -3 15 8 34 28 76 25 76 -6 0 -14 20
-27 45 -29 35 -3 38 1 15 16 -25 16 -25 22 -3 37 41 26 -8 49 -71 33 -42 -11
-49 -7 -39 20 7 18 13 36 13 41 0 5 27 -5 59 -21 32 -17 73 -31 91 -31 21 0
27 -9 17 -25 -44 -71 -30 -87 93 -105 49 -7 96 -17 104 -22 8 -5 46 -10 85
-12 43 -1 71 -13 71 -28 0 -14 20 -29 45 -34 39 -7 37 -9 -10 -11 -30 -2 -55
6 -55 17 0 11 -13 20 -30 20 -16 0 -30 -7 -30 -15 1 -41 40 -64 130 -74 55 -7
103 -21 107 -32 3 -10 14 -19 24 -19 10 0 12 15 5 33 -9 24 -6 29 14 17 14 -9
83 -18 152 -21 82 -2 154 -19 206 -46 44 -23 85 -34 91 -25 5 9 56 23 111 30
56 8 96 22 90 31 -6 10 0 25 13 33 14 9 18 6 9 -9 -9 -15 1 -23 29 -23 37 0
40 5 19 30 -41 49 -160 33 -160 -22 0 -15 -18 -28 -40 -28 -22 0 -40 9 -40 20
0 10 -28 14 -65 8 -44 -8 -56 -5 -38 8 31 21 -29 43 -122 44 -30 0 -55 7 -55
16 0 8 -21 17 -47 19 -25 2 -73 18 -105 34 -32 17 -82 31 -110 31 -105 0 -180
24 -174 56 8 39 76 50 76 12 0 -15 16 -28 35 -28 19 0 58 -5 85 -11 32 -6 21
4 -30 29 -79 39 -79 39 -22 41 76 1 58 19 -30 29 -37 4 -77 9 -88 10 -11 1 -6
12 10 24 24 16 21 18 -13 8 -24 -6 -49 -2 -56 9 -8 12 -22 21 -33 21 -11 0
-15 -9 -8 -20 7 -11 -2 -20 -19 -20 -17 0 -31 -9 -31 -20 0 -27 27 -25 56 4
13 13 30 17 38 8 33 -32 -83 -91 -174 -89 -49 1 -69 6 -43 11 30 6 42 19 35
38 -7 17 2 28 22 28 25 0 22 9 -14 40 -49 42 -120 54 -120 20 0 -30 -52 -24
-80 10 -34 42 -115 38 -126 -5 -5 -19 -5 -6 -1 28 8 60 -13 100 -39 75z m786
-366 l110 -37 -93 -7 c-52 -5 -93 -4 -93 2 3 41 -10 58 -49 66 -25 5 -31 10
-15 11 17 1 80 -15 140 -35z"/>
<path d="M3553 1090 c-19 -19 -35 -23 -43 -10 -18 29 -44 25 -57 -9 -8 -20 -1
-25 20 -17 17 6 39 -1 49 -16 12 -20 17 -21 18 -3 0 14 18 25 40 25 22 0 40
13 40 30 0 38 -29 38 -67 0z"/>
<path d="M236 986 c20 -7 20 -16 2 -38 -36 -44 11 -33 52 12 35 39 35 40 -22
38 -32 0 -46 -6 -32 -12z"/>
<path d="M3905 945 c8 -5 15 -21 15 -35 0 -15 9 -33 20 -40 11 -7 14 2 7 21
-12 31 -9 31 40 -1 34 -22 53 -26 53 -11 0 13 10 17 23 9 13 -8 18 -5 10 7 -7
11 -37 25 -68 30 -30 5 -68 14 -85 19 -16 5 -23 6 -15 1z"/>
<path d="M2053 857 c-23 -13 -91 -17 -180 -9 -79 7 -219 3 -313 -10 -237 -32
-595 -39 -690 -14 -150 39 -870 -21 -870 -72 0 -39 12 -42 159 -45 88 -1 158
3 155 10 -8 24 16 26 72 4 31 -11 103 -20 160 -18 58 2 80 7 49 11 -30 5 -55
17 -55 27 0 10 -28 12 -63 5 -48 -9 -59 -6 -47 13 11 18 43 22 108 13 50 -7
173 -18 272 -24 99 -7 183 -20 187 -30 3 -10 20 -18 36 -18 16 0 24 9 17 20
-7 12 18 20 64 19 74 0 75 -1 28 -27 -46 -26 -46 -28 -10 -50 30 -19 -1 -22
-152 -13 -269 16 -600 9 -600 -12 0 -7 33 -19 74 -26 54 -11 66 -19 45 -33
-16 -10 -54 -13 -84 -6 -73 15 -70 -2 7 -40 62 -31 109 -26 88 8 -14 22 53 33
380 62 143 12 271 31 284 42 14 11 60 14 104 6 88 -15 169 2 151 31 -6 11 11
19 39 19 35 0 47 -9 40 -27 -7 -19 11 -32 53 -40 125 -25 152 -12 59 27 l-90
38 80 4 c106 5 45 15 -210 36 -203 16 -205 17 -64 19 111 2 143 9 131 28 -10
17 -4 16 19 -2 22 -18 34 -20 34 -5 0 13 36 21 95 19 73 -3 80 -5 30 -11 -36
-5 -65 -15 -65 -22 0 -26 121 -14 138 13 25 40 223 48 207 8 -9 -24 3 -27 68
-16 43 7 123 3 178 -10 140 -33 267 -43 229 -19 -24 15 -19 19 23 20 28 0 63
-13 77 -30 14 -16 44 -30 67 -30 31 1 36 5 16 18 -14 9 -23 24 -20 34 10 26
-125 67 -178 54 -25 -6 -45 -1 -45 11 0 48 -220 79 -287 40z"/>
<path d="M5350 857 c99 -32 355 -76 430 -74 52 2 57 5 20 11 -27 5 -143 26
-256 47 -220 42 -291 48 -194 16z"/>
<path d="M5868 797 c-10 -16 -4 -20 19 -11 18 7 33 4 33 -7 0 -10 20 -19 45
-19 33 1 38 5 18 18 -23 14 -23 19 0 28 15 6 -2 12 -37 12 -35 1 -70 -9 -78
-21z"/>
<path d="M1740 760 c0 -11 20 -21 45 -21 l45 -2 -46 -18 c-75 -30 -30 -59 92
-59 81 1 105 6 84 20 -26 17 -25 19 5 20 19 0 35 9 35 20 0 11 -35 20 -79 20
-43 0 -84 9 -91 20 -7 11 -30 20 -51 20 -22 0 -39 -9 -39 -20z"/>
<path d="M5197 729 c-162 -35 -234 -71 -117 -59 295 29 360 32 360 13 0 -22
164 -5 181 19 13 21 99 -1 99 -24 0 -10 -17 -18 -38 -18 -57 0 -103 -22 -91
-42 6 -10 67 -18 135 -17 121 1 122 2 64 28 -56 25 -51 26 75 18 85 -5 135 -1
135 12 0 24 -11 26 -160 21 -60 -2 -105 2 -98 8 6 7 51 13 100 15 126 4 193
33 88 38 -305 13 -642 7 -733 -12z"/>
<path d="M2939 698 c-21 -21 -102 -29 -309 -32 -154 -2 -343 -5 -420 -7 l-140
-3 102 -25 c98 -24 568 -58 568 -41 0 5 -29 18 -65 28 -55 17 -43 19 80 18 80
-1 145 -10 145 -19 0 -9 16 -16 35 -15 23 1 26 5 9 12 -20 8 -18 16 8 35 18
13 30 36 25 50 -7 21 -15 21 -38 -1z"/>
<path d="M111 663 c10 -9 73 -10 139 -3 l120 14 -139 3 c-76 2 -130 -5 -120
-14z"/>
<path d="M2991 665 c-19 -20 -12 -65 10 -65 12 0 17 8 11 17 -6 9 36 14 94 11
57 -4 86 -2 64 4 -142 38 -168 43 -179 33z"/>
<path d="M3210 601 c-44 -7 -91 -19 -105 -28 -47 -29 -209 -50 -435 -57 -108
-4 -383 30 -419 50 -42 25 -351 28 -621 7 -133 -11 -892 -51 -983 -53 -24 0
-48 -14 -54 -30 -7 -17 -28 -30 -47 -31 -41 -1 51 -44 138 -66 45 -11 53 -8
42 19 -10 27 -2 30 46 20 32 -6 108 -16 168 -22 61 -6 151 -15 200 -20 50 -5
132 -22 184 -37 90 -27 718 -18 747 11 12 13 -410 39 -430 27 -34 -21 -309
-16 -317 6 -4 13 -20 23 -34 23 -15 0 -34 10 -41 22 -15 24 73 4 91 -21 6 -7
64 -7 130 0 66 7 104 14 84 16 -20 2 -32 11 -26 20 6 9 61 10 123 1 62 -8 125
-11 139 -5 14 5 83 -1 153 -14 125 -24 178 -33 237 -39 21 -2 19 -8 -10 -21
-28 -13 -3 -16 80 -10 66 5 159 10 206 10 52 1 81 9 74 21 -23 37 167 22 245
-20 41 -22 106 -39 145 -38 38 0 57 6 40 13 -16 6 -39 23 -50 36 -11 14 -54
35 -95 48 -106 34 -95 39 74 34 130 -4 249 -33 135 -33 -26 0 -39 -10 -33 -25
12 -32 397 -14 463 21 24 13 55 20 70 14 14 -5 102 -18 195 -29 93 -12 174
-28 180 -38 20 -30 661 6 661 38 0 43 -103 51 -800 59 -71 1 -83 5 -55 22 19
11 44 15 55 8 11 -7 20 1 20 18 0 16 -10 36 -23 44 -13 8 -18 5 -10 -7 22 -35
-88 -42 -154 -9 -35 17 -78 38 -97 47 -36 17 -161 16 -286 -2z m-950 -101 c28
-9 93 -23 145 -30 102 -13 131 -51 40 -51 -30 0 -89 -3 -130 -7 -41 -4 -75 0
-75 10 0 10 29 18 63 18 90 0 63 15 -53 31 -55 7 -127 26 -160 41 -71 32 71
23 170 -12z m1211 19 c6 -10 -14 -23 -45 -29 -31 -6 -94 -19 -140 -30 -97 -22
-193 -2 -106 22 l50 14 -50 4 -50 4 50 15 c69 22 277 22 291 0z"/>
<path d="M4833 605 c-35 -5 -61 -23 -67 -45 -6 -22 -22 -33 -38 -26 -34 13
-128 -9 -128 -30 0 -8 118 -17 262 -19 282 -4 324 15 157 73 l-89 31 70 13
c85 16 -64 19 -167 3z"/>
<path d="M5150 575 c68 -49 148 -58 368 -41 l212 15 -140 15 c-363 38 -482 41
-440 11z"/>
<path d="M5865 584 c-72 -3 -125 -15 -125 -27 0 -24 229 -15 253 9 22 22 5 24
-128 18z"/>
<path d="M45 538 c-84 -31 -56 -153 41 -180 61 -16 83 -15 95 4 12 19 28 19
73 1 51 -22 321 -15 344 8 8 9 1 11 -133 48 -100 27 -113 57 -20 47 51 -6 41
1 -45 35 -119 45 -285 63 -355 37z"/>
<path d="M5441 469 c-56 -25 -89 -26 -174 -8 -83 17 -122 15 -189 -7 -59 -20
-105 -24 -147 -12 -77 23 -96 23 -82 0 13 -21 230 -50 329 -44 59 3 65 0 43
-27 -14 -17 -38 -31 -53 -31 -16 0 -28 -9 -28 -20 0 -32 80 -23 93 10 6 17 39
31 74 33 47 2 52 5 18 11 -92 18 -41 45 70 39 63 -4 133 -1 155 7 24 9 52 5
70 -10 19 -16 45 -19 70 -9 33 13 34 16 6 18 -19 0 -44 19 -56 41 -26 48 -101
51 -199 9z"/>
<path d="M5940 460 c-27 -9 -84 -22 -125 -29 -41 -7 -75 -22 -75 -34 0 -13 20
-16 50 -9 28 7 50 5 50 -5 0 -25 112 -69 144 -57 16 6 7 17 -24 30 -49 21 -49
21 -5 23 34 1 45 13 45 51 0 28 -2 49 -5 48 -3 0 -27 -9 -55 -18z"/>
<path d="M4580 395 c0 -22 105 -18 140 5 22 15 7 19 -55 15 -47 -3 -85 -12
-85 -20z"/>
<path d="M4833 350 c-17 -16 -51 -31 -77 -31 -43 -2 -44 -3 -6 -19 68 -29 130
-24 117 10 -8 21 2 30 36 30 38 1 41 4 17 20 -41 26 -52 25 -87 -10z"/>
<path d="M3657 342 c23 -14 23 -19 0 -28 -15 -6 9 -11 53 -12 l80 -2 -57 30
c-61 32 -122 42 -76 12z"/>
<path d="M4270 341 c-72 -11 -63 -14 80 -28 88 -8 192 -20 230 -27 39 -6 64
-5 57 3 -14 15 -235 71 -267 67 -11 -1 -56 -7 -100 -15z"/>
<path d="M5600 305 c0 -8 -42 -17 -94 -19 -51 -3 -108 -10 -125 -17 -88 -36
-376 -23 -318 13 18 12 1 17 -49 18 -42 0 -71 -8 -65 -18 6 -10 0 -23 -14 -28
-37 -13 93 -32 270 -39 85 -3 155 1 155 10 0 24 56 17 64 -8 6 -17 19 -17 51
0 23 13 60 23 81 23 21 0 59 18 84 40 46 40 46 40 3 40 -24 0 -43 -7 -43 -15z"/>
<path d="M3300 276 c-144 -31 -142 -56 4 -56 95 0 138 -9 157 -32 42 -49 212
-128 278 -128 62 0 82 -27 36 -48 -30 -14 116 6 156 21 16 6 29 1 29 -11 0
-12 18 -22 40 -22 39 0 47 38 12 63 -9 7 -52 8 -94 2 -53 -7 -93 0 -128 23
-28 19 -60 28 -70 22 -11 -7 -44 2 -75 18 l-55 30 80 0 c44 1 139 -12 210 -28
171 -38 175 -37 112 12 -91 72 -217 96 -357 68 -51 -11 -75 -8 -75 7 0 13 20
23 44 23 31 0 38 6 23 21 -29 29 -219 38 -327 15z"/>
<path d="M60 240 c46 -36 100 -53 100 -31 0 12 -112 71 -134 71 -9 -1 7 -18
34 -40z"/>
<path d="M385 264 c-15 -10 25 -26 100 -42 217 -46 230 -45 125 8 -101 50
-180 62 -225 34z"/>
<path d="M712 263 c-6 -9 24 -27 66 -40 95 -28 142 -29 142 -3 0 44 -184 82
-208 43z"/>
<path d="M980 261 c-41 -12 -32 -16 50 -23 136 -11 312 7 263 27 -45 19 -246
16 -313 -4z"/>
<path d="M2300 261 c-22 -15 11 -21 120 -21 83 0 186 -5 230 -10 l80 -9 -70
18 c-118 32 -328 44 -360 22z"/>
<path d="M3992 253 c8 -21 2 -33 -15 -33 -21 -1 -21 -4 2 -19 16 -10 36 -14
43 -10 8 5 72 -4 141 -21 152 -35 225 -39 174 -9 -19 10 -57 21 -85 23 -29 3
-52 12 -52 22 0 9 52 12 115 6 108 -10 110 -10 35 10 -44 11 -125 17 -180 12
-67 -6 -114 1 -145 21 -41 27 -44 27 -33 -2z"/>
<path d="M2034 246 c-28 -7 -31 -16 -14 -36 26 -31 -43 -63 -83 -38 -13 8 -63
13 -111 11 -55 -2 -84 4 -76 17 8 13 -38 20 -128 20 -77 0 -145 -9 -152 -20
-7 -11 -68 -21 -136 -22 l-124 -1 80 -26 c181 -59 297 -91 331 -91 19 0 39
-11 44 -24 4 -14 22 -18 46 -8 47 18 5 59 -96 96 -62 22 -74 56 -20 56 19 0
56 6 81 13 33 9 44 4 40 -15 -4 -18 16 -30 53 -35 33 -3 69 -18 80 -33 25 -31
129 -50 321 -59 77 -3 181 -11 230 -16 263 -32 434 -36 337 -7 -171 50 -164
85 19 90 79 2 70 32 -15 49 -65 13 -199 -25 -200 -57 0 -11 -50 -23 -111 -26
-92 -5 -108 -1 -98 25 10 24 -2 31 -55 30 -56 -2 -60 -5 -27 -19 22 -9 29 -18
15 -19 -14 0 -41 7 -60 18 -19 10 -62 24 -95 31 -48 11 -53 17 -28 31 19 11
60 10 100 -2 85 -24 198 -25 198 -1 0 10 -20 19 -45 20 -147 7 -258 28 -233
44 32 20 0 22 -68 4z m156 -146 c20 -32 -114 -31 -170 1 -20 12 1 18 64 18 51
1 99 -8 106 -19z"/>
<path d="M2965 193 c-25 -12 -45 -29 -45 -38 0 -8 -17 -15 -38 -15 -48 0 -72
-57 -31 -73 16 -6 68 -2 114 10 60 15 88 15 97 -1 8 -13 36 -16 68 -8 29 8 64
5 77 -5 24 -20 391 -56 373 -37 -54 58 -560 196 -615 167z"/>
<path d="M4511 201 c-6 -9 21 -23 60 -30 38 -7 65 -22 58 -32 -6 -10 7 -19 30
-19 23 0 41 13 41 30 0 20 20 30 60 30 33 0 60 8 60 17 0 23 -295 27 -309 4z"/>
<path d="M0 182 c0 -30 174 -105 234 -100 102 8 166 -2 166 -25 0 -24 -302
-14 -365 12 -22 10 -35 6 -35 -8 0 -44 94 -57 440 -59 322 -2 489 19 359 45
-117 24 -418 72 -519 84 -60 7 -130 25 -154 41 -50 32 -126 37 -126 10z"/>
<path d="M1012 151 c15 -37 75 -58 178 -61 44 -2 101 -10 128 -19 32 -10 43
-8 33 7 -7 12 -27 22 -43 22 -17 0 -54 12 -84 27 -88 44 -225 60 -212 24z"/>
<path d="M5630 162 c-47 -7 -78 -23 -75 -37 7 -33 -89 -55 -122 -27 -15 12
-30 18 -35 14 -4 -5 -47 -1 -94 7 -63 12 -93 9 -114 -11 -30 -31 -58 -38 -41
-10 6 10 -12 16 -39 15 -46 -3 -47 -5 -17 -28 31 -23 30 -25 -14 -26 l-49 -2
49 -19 c43 -17 163 -15 471 9 36 3 58 15 55 30 -5 20 40 24 195 19 196 -6 200
-5 200 39 0 48 -160 60 -370 27z m-196 -89 c7 -8 -37 -13 -99 -11 -63 2 -109
12 -102 22 12 21 178 11 201 -11z"/>
<path d="M4760 143 c0 -11 36 -26 80 -33 122 -21 113 -44 -16 -39 -63 3 -199
7 -304 9 -104 2 -217 11 -250 20 -114 31 -190 39 -190 20 0 -28 111 -81 132
-63 24 21 228 4 228 -18 0 -9 -52 -20 -115 -24 -94 -6 -85 -8 52 -11 147 -4
165 0 143 26 -30 36 57 45 92 10 11 -11 123 -25 249 -30 126 -5 212 -4 190 3
-68 20 -102 67 -48 67 75 0 15 36 -83 50 -49 6 -106 17 -125 22 -19 6 -35 2
-35 -9z"/>
<path d="M790 117 c145 -26 171 -40 110 -56 -70 -20 172 -62 332 -58 65 1 96
6 68 10 -301 45 -334 54 -325 90 9 34 -4 37 -138 35 l-147 -2 100 -19z"/>
</g>
</svg>
